<mxfile host="Electron" agent="Mozilla/5.0 (Windows NT 10.0; Win64; x64) AppleWebKit/537.36 (KHTML, like Gecko) draw.io/25.0.2 Chrome/128.0.6613.186 Electron/32.2.5 Safari/537.36" version="25.0.2">
  <diagram name="Страница — 1" id="1DhiaJtrOxg-ufhtKDFx">
    <mxGraphModel dx="1185" dy="1094" grid="1" gridSize="10" guides="1" tooltips="1" connect="1" arrows="1" fold="1" page="0" pageScale="1" pageWidth="827" pageHeight="1169" math="0" shadow="0">
      <root>
        <mxCell id="0" />
        <mxCell id="buXjULTb7Ma8A_ARaXhs-275" value="bg" style="" parent="0" />
        <mxCell id="buXjULTb7Ma8A_ARaXhs-273" value="" style="rounded=0;whiteSpace=wrap;html=1;strokeColor=none;fillColor=#D1EEFF;opacity=30;glass=0;" parent="buXjULTb7Ma8A_ARaXhs-275" vertex="1">
          <mxGeometry x="120" y="500" width="470" height="190" as="geometry" />
        </mxCell>
        <mxCell id="buXjULTb7Ma8A_ARaXhs-274" value="" style="rounded=0;whiteSpace=wrap;html=1;strokeColor=none;fillColor=#ADC6D4;opacity=30;glass=0;" parent="buXjULTb7Ma8A_ARaXhs-275" vertex="1">
          <mxGeometry x="120" y="480" width="470" height="20" as="geometry" />
        </mxCell>
        <mxCell id="buXjULTb7Ma8A_ARaXhs-277" value="" style="rounded=0;whiteSpace=wrap;html=1;strokeColor=none;fillColor=#FFEAA6;opacity=30;glass=0;" parent="buXjULTb7Ma8A_ARaXhs-275" vertex="1">
          <mxGeometry x="120" y="330" width="470" height="150" as="geometry" />
        </mxCell>
        <mxCell id="buXjULTb7Ma8A_ARaXhs-278" value="" style="rounded=0;whiteSpace=wrap;html=1;strokeColor=none;fillColor=#F3B5FF;opacity=30;glass=0;" parent="buXjULTb7Ma8A_ARaXhs-275" vertex="1">
          <mxGeometry x="120" y="290" width="470" height="40" as="geometry" />
        </mxCell>
        <mxCell id="buXjULTb7Ma8A_ARaXhs-276" value="" style="rounded=0;whiteSpace=wrap;html=1;strokeColor=none;fillColor=#FFEAA6;opacity=30;glass=0;" parent="buXjULTb7Ma8A_ARaXhs-275" vertex="1">
          <mxGeometry x="120" y="250" width="470" height="40" as="geometry" />
        </mxCell>
        <mxCell id="buXjULTb7Ma8A_ARaXhs-279" value="" style="rounded=0;whiteSpace=wrap;html=1;strokeColor=none;fillColor=#FFB7A1;opacity=30;glass=0;" parent="buXjULTb7Ma8A_ARaXhs-275" vertex="1">
          <mxGeometry x="120" y="230" width="470" height="20" as="geometry" />
        </mxCell>
        <mxCell id="buXjULTb7Ma8A_ARaXhs-280" value="" style="rounded=0;whiteSpace=wrap;html=1;strokeColor=none;fillColor=#B8FFA6;opacity=30;glass=0;" parent="buXjULTb7Ma8A_ARaXhs-275" vertex="1">
          <mxGeometry x="120" y="210" width="470" height="20" as="geometry" />
        </mxCell>
        <mxCell id="buXjULTb7Ma8A_ARaXhs-334" value="" style="rounded=0;whiteSpace=wrap;html=1;strokeColor=none;fillColor=#E3BAFF;opacity=30;glass=0;" parent="buXjULTb7Ma8A_ARaXhs-275" vertex="1">
          <mxGeometry x="120" y="710" width="470" height="70" as="geometry" />
        </mxCell>
        <mxCell id="buXjULTb7Ma8A_ARaXhs-335" value="" style="rounded=0;whiteSpace=wrap;html=1;strokeColor=none;fillColor=#BC9AD4;opacity=30;glass=0;" parent="buXjULTb7Ma8A_ARaXhs-275" vertex="1">
          <mxGeometry x="120" y="690" width="470" height="20" as="geometry" />
        </mxCell>
        <mxCell id="buXjULTb7Ma8A_ARaXhs-500" value="" style="rounded=0;whiteSpace=wrap;html=1;strokeColor=none;fillColor=#FFEAA6;opacity=30;glass=0;" parent="buXjULTb7Ma8A_ARaXhs-275" vertex="1">
          <mxGeometry x="120" y="70" width="470" height="60" as="geometry" />
        </mxCell>
        <mxCell id="buXjULTb7Ma8A_ARaXhs-501" value="" style="rounded=0;whiteSpace=wrap;html=1;strokeColor=none;fillColor=#F3B5FF;opacity=30;glass=0;" parent="buXjULTb7Ma8A_ARaXhs-275" vertex="1">
          <mxGeometry x="120" y="30" width="470" height="40" as="geometry" />
        </mxCell>
        <mxCell id="buXjULTb7Ma8A_ARaXhs-502" value="" style="rounded=0;whiteSpace=wrap;html=1;strokeColor=none;fillColor=#CCCCCC;opacity=30;glass=0;" parent="buXjULTb7Ma8A_ARaXhs-275" vertex="1">
          <mxGeometry x="120" y="-20" width="470" height="50" as="geometry" />
        </mxCell>
        <mxCell id="buXjULTb7Ma8A_ARaXhs-503" value="" style="rounded=0;whiteSpace=wrap;html=1;strokeColor=none;fillColor=#CCCCCC;opacity=30;glass=0;" parent="buXjULTb7Ma8A_ARaXhs-275" vertex="1">
          <mxGeometry x="120" y="160" width="470" height="50" as="geometry" />
        </mxCell>
        <mxCell id="1" value="table" style="" parent="0" />
        <mxCell id="yZcuGgpaBFYyNksr62-L-2" value="Arma3 Server Message v3" style="shape=table;childLayout=tableLayout;startSize=50;collapsible=0;recursiveResize=0;expand=0;fontSize=16;movable=1;resizable=1;rotatable=1;deletable=1;editable=1;locked=0;connectable=1;verticalAlign=top;strokeWidth=2;fontFamily=JetBrains Mono;fontSource=https%3A%2F%2Ffonts.googleapis.com%2Fcss%3Ffamily%3DJetBrains%2BMono;fillColor=none;rounded=1;arcSize=3;" parent="1" vertex="1">
          <mxGeometry x="120" y="160" width="470" height="620" as="geometry" />
        </mxCell>
        <mxCell id="yZcuGgpaBFYyNksr62-L-144" style="shape=tableRow;horizontal=0;swimlaneHead=0;swimlaneBody=0;top=0;left=0;strokeColor=inherit;bottom=0;right=0;dropTarget=0;fontStyle=0;fillColor=none;points=[[0,0.5],[1,0.5]];portConstraint=eastwest;startSize=0;collapsible=0;recursiveResize=0;expand=0;fontSize=16;fontFamily=JetBrains Mono;fontSource=https%3A%2F%2Ffonts.googleapis.com%2Fcss%3Ffamily%3DJetBrains%2BMono;" parent="yZcuGgpaBFYyNksr62-L-2" vertex="1">
          <mxGeometry y="50" width="470" height="20" as="geometry" />
        </mxCell>
        <mxCell id="yZcuGgpaBFYyNksr62-L-145" value="" style="swimlane;swimlaneHead=0;swimlaneBody=0;fontStyle=0;connectable=0;strokeColor=inherit;fillColor=none;startSize=0;collapsible=0;recursiveResize=0;expand=0;fontSize=16;fontFamily=JetBrains Mono;fontSource=https%3A%2F%2Ffonts.googleapis.com%2Fcss%3Ffamily%3DJetBrains%2BMono;" parent="yZcuGgpaBFYyNksr62-L-144" vertex="1">
          <mxGeometry width="160" height="20" as="geometry">
            <mxRectangle width="160" height="20" as="alternateBounds" />
          </mxGeometry>
        </mxCell>
        <mxCell id="yZcuGgpaBFYyNksr62-L-146" style="swimlane;swimlaneHead=0;swimlaneBody=0;fontStyle=0;connectable=0;strokeColor=inherit;fillColor=none;startSize=0;collapsible=0;recursiveResize=0;expand=0;fontSize=16;fontFamily=JetBrains Mono;fontSource=https%3A%2F%2Ffonts.googleapis.com%2Fcss%3Ffamily%3DJetBrains%2BMono;" parent="yZcuGgpaBFYyNksr62-L-144" vertex="1">
          <mxGeometry x="160" width="70" height="20" as="geometry">
            <mxRectangle width="70" height="20" as="alternateBounds" />
          </mxGeometry>
        </mxCell>
        <mxCell id="yZcuGgpaBFYyNksr62-L-329" value="byte" style="text;html=1;align=center;verticalAlign=middle;whiteSpace=wrap;rounded=0;fontFamily=JetBrains Mono;fontSource=https%3A%2F%2Ffonts.googleapis.com%2Fcss%3Ffamily%3DJetBrains%2BMono;" parent="yZcuGgpaBFYyNksr62-L-146" vertex="1">
          <mxGeometry width="70" height="20" as="geometry" />
        </mxCell>
        <mxCell id="yZcuGgpaBFYyNksr62-L-147" style="swimlane;swimlaneHead=0;swimlaneBody=0;fontStyle=0;connectable=0;strokeColor=inherit;fillColor=none;startSize=0;collapsible=0;recursiveResize=0;expand=0;fontSize=16;fontFamily=JetBrains Mono;fontSource=https%3A%2F%2Ffonts.googleapis.com%2Fcss%3Ffamily%3DJetBrains%2BMono;" parent="yZcuGgpaBFYyNksr62-L-144" vertex="1">
          <mxGeometry x="230" width="240" height="20" as="geometry">
            <mxRectangle width="240" height="20" as="alternateBounds" />
          </mxGeometry>
        </mxCell>
        <mxCell id="yZcuGgpaBFYyNksr62-L-179" value="Protocol version" style="text;html=1;align=left;verticalAlign=middle;whiteSpace=wrap;rounded=0;spacingLeft=6;fontFamily=JetBrains Mono;fontSource=https%3A%2F%2Ffonts.googleapis.com%2Fcss%3Ffamily%3DJetBrains%2BMono;" parent="yZcuGgpaBFYyNksr62-L-147" vertex="1">
          <mxGeometry width="240" height="20" as="geometry" />
        </mxCell>
        <mxCell id="yZcuGgpaBFYyNksr62-L-151" style="shape=tableRow;horizontal=0;swimlaneHead=0;swimlaneBody=0;top=0;left=0;strokeColor=inherit;bottom=0;right=0;dropTarget=0;fontStyle=0;fillColor=none;points=[[0,0.5],[1,0.5]];portConstraint=eastwest;startSize=0;collapsible=0;recursiveResize=0;expand=0;fontSize=16;fontFamily=JetBrains Mono;fontSource=https%3A%2F%2Ffonts.googleapis.com%2Fcss%3Ffamily%3DJetBrains%2BMono;" parent="yZcuGgpaBFYyNksr62-L-2" vertex="1">
          <mxGeometry y="70" width="470" height="20" as="geometry" />
        </mxCell>
        <mxCell id="yZcuGgpaBFYyNksr62-L-152" style="swimlane;swimlaneHead=0;swimlaneBody=0;fontStyle=0;connectable=0;strokeColor=inherit;fillColor=none;startSize=0;collapsible=0;recursiveResize=0;expand=0;fontSize=12;fontFamily=JetBrains Mono;fontSource=https%3A%2F%2Ffonts.googleapis.com%2Fcss%3Ffamily%3DJetBrains%2BMono;" parent="yZcuGgpaBFYyNksr62-L-151" vertex="1">
          <mxGeometry width="160" height="20" as="geometry">
            <mxRectangle width="160" height="20" as="alternateBounds" />
          </mxGeometry>
        </mxCell>
        <mxCell id="yZcuGgpaBFYyNksr62-L-69" value="" style="shape=table;startSize=0;container=1;collapsible=0;childLayout=tableLayout;fontSize=12;movable=1;resizable=1;rotatable=1;deletable=1;editable=1;locked=0;connectable=1;fillColor=none;fontFamily=JetBrains Mono;fontSource=https%3A%2F%2Ffonts.googleapis.com%2Fcss%3Ffamily%3DJetBrains%2BMono;" parent="yZcuGgpaBFYyNksr62-L-152" vertex="1">
          <mxGeometry width="160" height="20" as="geometry" />
        </mxCell>
        <mxCell id="yZcuGgpaBFYyNksr62-L-74" value="" style="shape=tableRow;horizontal=0;startSize=0;swimlaneHead=0;swimlaneBody=0;strokeColor=inherit;top=0;left=0;bottom=0;right=0;collapsible=0;dropTarget=0;fillColor=none;points=[[0,0.5],[1,0.5]];portConstraint=eastwest;fontSize=12;movable=1;resizable=1;rotatable=1;deletable=1;editable=1;locked=0;connectable=1;fontFamily=JetBrains Mono;fontSource=https%3A%2F%2Ffonts.googleapis.com%2Fcss%3Ffamily%3DJetBrains%2BMono;" parent="yZcuGgpaBFYyNksr62-L-69" vertex="1">
          <mxGeometry width="160" height="20" as="geometry" />
        </mxCell>
        <mxCell id="yZcuGgpaBFYyNksr62-L-104" style="shape=partialRectangle;html=1;whiteSpace=wrap;connectable=1;strokeColor=inherit;overflow=hidden;fillColor=#919191;top=0;left=0;bottom=0;right=0;pointerEvents=1;fontSize=12;movable=1;resizable=1;rotatable=1;deletable=1;editable=1;locked=0;fillStyle=hatch;sketch=1;curveFitting=1;jiggle=2;fontFamily=JetBrains Mono;fontSource=https%3A%2F%2Ffonts.googleapis.com%2Fcss%3Ffamily%3DJetBrains%2BMono;" parent="yZcuGgpaBFYyNksr62-L-74" vertex="1">
          <mxGeometry width="120" height="20" as="geometry">
            <mxRectangle width="120" height="20" as="alternateBounds" />
          </mxGeometry>
        </mxCell>
        <mxCell id="yZcuGgpaBFYyNksr62-L-75" value="V" style="shape=partialRectangle;html=1;whiteSpace=wrap;connectable=1;strokeColor=inherit;overflow=hidden;fillColor=none;top=0;left=0;bottom=0;right=0;pointerEvents=1;fontSize=12;movable=1;resizable=1;rotatable=1;deletable=1;editable=1;locked=0;fontFamily=JetBrains Mono;fontSource=https%3A%2F%2Ffonts.googleapis.com%2Fcss%3Ffamily%3DJetBrains%2BMono;" parent="yZcuGgpaBFYyNksr62-L-74" vertex="1">
          <mxGeometry x="120" width="20" height="20" as="geometry">
            <mxRectangle width="20" height="20" as="alternateBounds" />
          </mxGeometry>
        </mxCell>
        <mxCell id="yZcuGgpaBFYyNksr62-L-76" value="O" style="shape=partialRectangle;html=1;whiteSpace=wrap;connectable=1;strokeColor=inherit;overflow=hidden;fillColor=none;top=0;left=0;bottom=0;right=0;pointerEvents=1;fontSize=12;movable=1;resizable=1;rotatable=1;deletable=1;editable=1;locked=0;fontFamily=JetBrains Mono;fontSource=https%3A%2F%2Ffonts.googleapis.com%2Fcss%3Ffamily%3DJetBrains%2BMono;" parent="yZcuGgpaBFYyNksr62-L-74" vertex="1">
          <mxGeometry x="140" width="20" height="20" as="geometry">
            <mxRectangle width="20" height="20" as="alternateBounds" />
          </mxGeometry>
        </mxCell>
        <mxCell id="yZcuGgpaBFYyNksr62-L-153" value="" style="swimlane;swimlaneHead=0;swimlaneBody=0;fontStyle=0;connectable=0;strokeColor=inherit;fillColor=none;startSize=0;collapsible=0;recursiveResize=0;expand=0;fontSize=16;spacing=0;fontColor=default;align=center;verticalAlign=middle;fontFamily=JetBrains Mono;fontSource=https%3A%2F%2Ffonts.googleapis.com%2Fcss%3Ffamily%3DJetBrains%2BMono;" parent="yZcuGgpaBFYyNksr62-L-151" vertex="1">
          <mxGeometry x="160" width="70" height="20" as="geometry">
            <mxRectangle width="70" height="20" as="alternateBounds" />
          </mxGeometry>
        </mxCell>
        <mxCell id="yZcuGgpaBFYyNksr62-L-328" value="byte" style="text;html=1;align=center;verticalAlign=middle;whiteSpace=wrap;rounded=0;fontFamily=JetBrains Mono;fontSource=https%3A%2F%2Ffonts.googleapis.com%2Fcss%3Ffamily%3DJetBrains%2BMono;" parent="yZcuGgpaBFYyNksr62-L-153" vertex="1">
          <mxGeometry width="70" height="20" as="geometry" />
        </mxCell>
        <mxCell id="yZcuGgpaBFYyNksr62-L-154" value="" style="swimlane;swimlaneHead=0;swimlaneBody=0;fontStyle=0;connectable=0;strokeColor=inherit;fillColor=none;startSize=0;collapsible=0;recursiveResize=0;expand=0;fontSize=16;textShadow=0;labelPosition=center;verticalLabelPosition=middle;align=center;verticalAlign=middle;spacingLeft=6;fontFamily=JetBrains Mono;fontSource=https%3A%2F%2Ffonts.googleapis.com%2Fcss%3Ffamily%3DJetBrains%2BMono;" parent="yZcuGgpaBFYyNksr62-L-151" vertex="1">
          <mxGeometry x="230" width="240" height="20" as="geometry">
            <mxRectangle width="240" height="20" as="alternateBounds" />
          </mxGeometry>
        </mxCell>
        <mxCell id="yZcuGgpaBFYyNksr62-L-178" value="General (overflow flags)" style="text;html=1;align=left;verticalAlign=middle;whiteSpace=wrap;rounded=0;fontFamily=JetBrains Mono;fontSize=12;fontColor=default;spacingLeft=6;fontSource=https%3A%2F%2Ffonts.googleapis.com%2Fcss%3Ffamily%3DJetBrains%2BMono;" parent="yZcuGgpaBFYyNksr62-L-154" vertex="1">
          <mxGeometry width="240" height="20" as="geometry" />
        </mxCell>
        <mxCell id="yZcuGgpaBFYyNksr62-L-7" value="" style="shape=tableRow;horizontal=0;swimlaneHead=0;swimlaneBody=0;top=0;left=0;strokeColor=inherit;bottom=0;right=0;dropTarget=0;fontStyle=0;fillColor=none;points=[[0,0.5],[1,0.5]];portConstraint=eastwest;startSize=0;collapsible=0;recursiveResize=0;expand=0;fontSize=16;fontFamily=JetBrains Mono;fontSource=https%3A%2F%2Ffonts.googleapis.com%2Fcss%3Ffamily%3DJetBrains%2BMono;" parent="yZcuGgpaBFYyNksr62-L-2" vertex="1">
          <mxGeometry y="90" width="470" height="40" as="geometry" />
        </mxCell>
        <mxCell id="yZcuGgpaBFYyNksr62-L-61" style="swimlane;swimlaneHead=0;swimlaneBody=0;fontStyle=0;connectable=0;strokeColor=inherit;fillColor=none;startSize=0;collapsible=0;recursiveResize=0;expand=0;fontSize=12;fontFamily=JetBrains Mono;fontSource=https%3A%2F%2Ffonts.googleapis.com%2Fcss%3Ffamily%3DJetBrains%2BMono;" parent="yZcuGgpaBFYyNksr62-L-7" vertex="1">
          <mxGeometry width="160" height="40" as="geometry">
            <mxRectangle width="160" height="40" as="alternateBounds" />
          </mxGeometry>
        </mxCell>
        <mxCell id="yZcuGgpaBFYyNksr62-L-95" value="" style="shape=table;startSize=0;container=1;collapsible=0;childLayout=tableLayout;fontSize=12;movable=1;resizable=1;rotatable=1;deletable=1;editable=1;locked=0;connectable=1;fillColor=none;fontFamily=JetBrains Mono;fontSource=https%3A%2F%2Ffonts.googleapis.com%2Fcss%3Ffamily%3DJetBrains%2BMono;" parent="yZcuGgpaBFYyNksr62-L-61" vertex="1">
          <mxGeometry width="160" height="20" as="geometry" />
        </mxCell>
        <mxCell id="yZcuGgpaBFYyNksr62-L-96" value="" style="shape=tableRow;horizontal=0;startSize=0;swimlaneHead=0;swimlaneBody=0;strokeColor=inherit;top=0;left=0;bottom=0;right=0;collapsible=0;dropTarget=0;fillColor=none;points=[[0,0.5],[1,0.5]];portConstraint=eastwest;fontSize=12;movable=1;resizable=1;rotatable=1;deletable=1;editable=1;locked=0;connectable=1;fontFamily=JetBrains Mono;fontSource=https%3A%2F%2Ffonts.googleapis.com%2Fcss%3Ffamily%3DJetBrains%2BMono;" parent="yZcuGgpaBFYyNksr62-L-95" vertex="1">
          <mxGeometry width="160" height="20" as="geometry" />
        </mxCell>
        <mxCell id="yZcuGgpaBFYyNksr62-L-111" value="A" style="shape=partialRectangle;html=1;whiteSpace=wrap;connectable=1;strokeColor=inherit;overflow=hidden;fillColor=none;top=0;left=0;bottom=0;right=0;pointerEvents=1;fontSize=12;movable=1;resizable=1;rotatable=1;deletable=1;editable=1;locked=0;fontFamily=JetBrains Mono;fontSource=https%3A%2F%2Ffonts.googleapis.com%2Fcss%3Ffamily%3DJetBrains%2BMono;" parent="yZcuGgpaBFYyNksr62-L-96" vertex="1">
          <mxGeometry width="20" height="20" as="geometry">
            <mxRectangle width="20" height="20" as="alternateBounds" />
          </mxGeometry>
        </mxCell>
        <mxCell id="yZcuGgpaBFYyNksr62-L-97" value="O" style="shape=partialRectangle;html=1;whiteSpace=wrap;connectable=1;strokeColor=inherit;overflow=hidden;fillColor=none;top=0;left=0;bottom=0;right=0;pointerEvents=1;fontSize=12;movable=1;resizable=1;rotatable=1;deletable=1;editable=1;locked=0;fontFamily=JetBrains Mono;fontSource=https%3A%2F%2Ffonts.googleapis.com%2Fcss%3Ffamily%3DJetBrains%2BMono;" parent="yZcuGgpaBFYyNksr62-L-96" vertex="1">
          <mxGeometry x="20" width="20" height="20" as="geometry">
            <mxRectangle width="20" height="20" as="alternateBounds" />
          </mxGeometry>
        </mxCell>
        <mxCell id="yZcuGgpaBFYyNksr62-L-98" value="J" style="shape=partialRectangle;html=1;whiteSpace=wrap;connectable=1;strokeColor=inherit;overflow=hidden;fillColor=none;top=0;left=0;bottom=0;right=0;pointerEvents=1;fontSize=12;movable=1;resizable=1;rotatable=1;deletable=1;editable=1;locked=0;fontFamily=JetBrains Mono;fontSource=https%3A%2F%2Ffonts.googleapis.com%2Fcss%3Ffamily%3DJetBrains%2BMono;" parent="yZcuGgpaBFYyNksr62-L-96" vertex="1">
          <mxGeometry x="40" width="20" height="20" as="geometry">
            <mxRectangle width="20" height="20" as="alternateBounds" />
          </mxGeometry>
        </mxCell>
        <mxCell id="yZcuGgpaBFYyNksr62-L-99" value="E" style="shape=partialRectangle;html=1;whiteSpace=wrap;connectable=1;strokeColor=inherit;overflow=hidden;fillColor=none;top=0;left=0;bottom=0;right=0;pointerEvents=1;fontSize=12;movable=1;resizable=1;rotatable=1;deletable=1;editable=1;locked=0;fontFamily=JetBrains Mono;fontSource=https%3A%2F%2Ffonts.googleapis.com%2Fcss%3Ffamily%3DJetBrains%2BMono;" parent="yZcuGgpaBFYyNksr62-L-96" vertex="1">
          <mxGeometry x="60" width="20" height="20" as="geometry">
            <mxRectangle width="20" height="20" as="alternateBounds" />
          </mxGeometry>
        </mxCell>
        <mxCell id="yZcuGgpaBFYyNksr62-L-100" value="Z" style="shape=partialRectangle;html=1;whiteSpace=wrap;connectable=1;strokeColor=inherit;overflow=hidden;fillColor=none;top=0;left=0;bottom=0;right=0;pointerEvents=1;fontSize=12;movable=1;resizable=1;rotatable=1;deletable=1;editable=1;locked=0;fontFamily=JetBrains Mono;fontSource=https%3A%2F%2Ffonts.googleapis.com%2Fcss%3Ffamily%3DJetBrains%2BMono;" parent="yZcuGgpaBFYyNksr62-L-96" vertex="1">
          <mxGeometry x="80" width="20" height="20" as="geometry">
            <mxRectangle width="20" height="20" as="alternateBounds" />
          </mxGeometry>
        </mxCell>
        <mxCell id="yZcuGgpaBFYyNksr62-L-101" value="H" style="shape=partialRectangle;html=1;whiteSpace=wrap;connectable=1;strokeColor=inherit;overflow=hidden;fillColor=none;top=0;left=0;bottom=0;right=0;pointerEvents=1;fontSize=12;movable=1;resizable=1;rotatable=1;deletable=1;editable=1;locked=0;fontFamily=JetBrains Mono;fontSource=https%3A%2F%2Ffonts.googleapis.com%2Fcss%3Ffamily%3DJetBrains%2BMono;" parent="yZcuGgpaBFYyNksr62-L-96" vertex="1">
          <mxGeometry x="100" width="20" height="20" as="geometry">
            <mxRectangle width="20" height="20" as="alternateBounds" />
          </mxGeometry>
        </mxCell>
        <mxCell id="yZcuGgpaBFYyNksr62-L-103" value="M" style="shape=partialRectangle;html=1;whiteSpace=wrap;connectable=1;strokeColor=inherit;overflow=hidden;fillColor=none;top=0;left=0;bottom=0;right=0;pointerEvents=1;fontSize=12;movable=1;resizable=1;rotatable=1;deletable=1;editable=1;locked=0;fontFamily=JetBrains Mono;fontSource=https%3A%2F%2Ffonts.googleapis.com%2Fcss%3Ffamily%3DJetBrains%2BMono;" parent="yZcuGgpaBFYyNksr62-L-96" vertex="1">
          <mxGeometry x="120" width="20" height="20" as="geometry">
            <mxRectangle width="20" height="20" as="alternateBounds" />
          </mxGeometry>
        </mxCell>
        <mxCell id="yZcuGgpaBFYyNksr62-L-112" value="K" style="shape=partialRectangle;html=1;whiteSpace=wrap;connectable=1;strokeColor=inherit;overflow=hidden;fillColor=none;top=0;left=0;bottom=0;right=0;pointerEvents=1;fontSize=12;movable=1;resizable=1;rotatable=1;deletable=1;editable=1;locked=0;fontFamily=JetBrains Mono;fontSource=https%3A%2F%2Ffonts.googleapis.com%2Fcss%3Ffamily%3DJetBrains%2BMono;" parent="yZcuGgpaBFYyNksr62-L-96" vertex="1">
          <mxGeometry x="140" width="20" height="20" as="geometry">
            <mxRectangle width="20" height="20" as="alternateBounds" />
          </mxGeometry>
        </mxCell>
        <mxCell id="yZcuGgpaBFYyNksr62-L-122" value="" style="shape=table;startSize=0;container=1;collapsible=0;childLayout=tableLayout;fontSize=12;movable=1;resizable=1;rotatable=1;deletable=1;editable=1;locked=0;connectable=1;fillColor=none;fontFamily=JetBrains Mono;fontSource=https%3A%2F%2Ffonts.googleapis.com%2Fcss%3Ffamily%3DJetBrains%2BMono;" parent="yZcuGgpaBFYyNksr62-L-61" vertex="1">
          <mxGeometry y="20" width="160" height="20" as="geometry" />
        </mxCell>
        <mxCell id="yZcuGgpaBFYyNksr62-L-123" value="" style="shape=tableRow;horizontal=0;startSize=0;swimlaneHead=0;swimlaneBody=0;strokeColor=inherit;top=0;left=0;bottom=0;right=0;collapsible=0;dropTarget=0;fillColor=none;points=[[0,0.5],[1,0.5]];portConstraint=eastwest;fontSize=12;movable=1;resizable=1;rotatable=1;deletable=1;editable=1;locked=0;connectable=1;fontFamily=JetBrains Mono;fontSource=https%3A%2F%2Ffonts.googleapis.com%2Fcss%3Ffamily%3DJetBrains%2BMono;" parent="yZcuGgpaBFYyNksr62-L-122" vertex="1">
          <mxGeometry width="160" height="20" as="geometry" />
        </mxCell>
        <mxCell id="yZcuGgpaBFYyNksr62-L-124" style="shape=partialRectangle;html=1;whiteSpace=wrap;connectable=1;strokeColor=inherit;overflow=hidden;fillColor=none;top=0;left=0;bottom=0;right=0;pointerEvents=1;fontSize=12;movable=1;resizable=1;rotatable=1;deletable=1;editable=1;locked=0;fontFamily=JetBrains Mono;fontSource=https%3A%2F%2Ffonts.googleapis.com%2Fcss%3Ffamily%3DJetBrains%2BMono;" parent="yZcuGgpaBFYyNksr62-L-123" vertex="1">
          <mxGeometry width="20" height="20" as="geometry">
            <mxRectangle width="20" height="20" as="alternateBounds" />
          </mxGeometry>
        </mxCell>
        <mxCell id="yZcuGgpaBFYyNksr62-L-125" value="" style="shape=partialRectangle;html=1;whiteSpace=wrap;connectable=1;strokeColor=inherit;overflow=hidden;fillColor=none;top=0;left=0;bottom=0;right=0;pointerEvents=1;fontSize=12;movable=1;resizable=1;rotatable=1;deletable=1;editable=1;locked=0;fontFamily=JetBrains Mono;fontSource=https%3A%2F%2Ffonts.googleapis.com%2Fcss%3Ffamily%3DJetBrains%2BMono;" parent="yZcuGgpaBFYyNksr62-L-123" vertex="1">
          <mxGeometry x="20" width="20" height="20" as="geometry">
            <mxRectangle width="20" height="20" as="alternateBounds" />
          </mxGeometry>
        </mxCell>
        <mxCell id="yZcuGgpaBFYyNksr62-L-126" value="" style="shape=partialRectangle;html=1;whiteSpace=wrap;connectable=1;strokeColor=inherit;overflow=hidden;fillColor=none;top=0;left=0;bottom=0;right=0;pointerEvents=1;fontSize=12;movable=1;resizable=1;rotatable=1;deletable=1;editable=1;locked=0;fontFamily=JetBrains Mono;fontSource=https%3A%2F%2Ffonts.googleapis.com%2Fcss%3Ffamily%3DJetBrains%2BMono;" parent="yZcuGgpaBFYyNksr62-L-123" vertex="1">
          <mxGeometry x="40" width="20" height="20" as="geometry">
            <mxRectangle width="20" height="20" as="alternateBounds" />
          </mxGeometry>
        </mxCell>
        <mxCell id="yZcuGgpaBFYyNksr62-L-127" value="AW" style="shape=partialRectangle;html=1;whiteSpace=wrap;connectable=1;strokeColor=inherit;overflow=hidden;fillColor=none;top=0;left=0;bottom=0;right=0;pointerEvents=1;fontSize=12;movable=1;resizable=1;rotatable=1;deletable=1;editable=1;locked=0;fontFamily=JetBrains Mono;fontSource=https%3A%2F%2Ffonts.googleapis.com%2Fcss%3Ffamily%3DJetBrains%2BMono;" parent="yZcuGgpaBFYyNksr62-L-123" vertex="1">
          <mxGeometry x="60" width="20" height="20" as="geometry">
            <mxRectangle width="20" height="20" as="alternateBounds" />
          </mxGeometry>
        </mxCell>
        <mxCell id="yZcuGgpaBFYyNksr62-L-128" value="E" style="shape=partialRectangle;html=1;whiteSpace=wrap;connectable=1;strokeColor=inherit;overflow=hidden;fillColor=none;top=0;left=0;bottom=0;right=0;pointerEvents=1;fontSize=12;movable=1;resizable=1;rotatable=1;deletable=1;editable=1;locked=0;fontFamily=JetBrains Mono;fontSource=https%3A%2F%2Ffonts.googleapis.com%2Fcss%3Ffamily%3DJetBrains%2BMono;" parent="yZcuGgpaBFYyNksr62-L-123" vertex="1">
          <mxGeometry x="80" width="20" height="20" as="geometry">
            <mxRectangle width="20" height="20" as="alternateBounds" />
          </mxGeometry>
        </mxCell>
        <mxCell id="yZcuGgpaBFYyNksr62-L-129" value="C" style="shape=partialRectangle;html=1;whiteSpace=wrap;connectable=1;strokeColor=inherit;overflow=hidden;fillColor=none;top=0;left=0;bottom=0;right=0;pointerEvents=1;fontSize=12;movable=1;resizable=1;rotatable=1;deletable=1;editable=1;locked=0;fontFamily=JetBrains Mono;fontSource=https%3A%2F%2Ffonts.googleapis.com%2Fcss%3Ffamily%3DJetBrains%2BMono;" parent="yZcuGgpaBFYyNksr62-L-123" vertex="1">
          <mxGeometry x="100" width="20" height="20" as="geometry">
            <mxRectangle width="20" height="20" as="alternateBounds" />
          </mxGeometry>
        </mxCell>
        <mxCell id="yZcuGgpaBFYyNksr62-L-130" value="T" style="shape=partialRectangle;html=1;whiteSpace=wrap;connectable=1;strokeColor=inherit;overflow=hidden;fillColor=none;top=0;left=0;bottom=0;right=0;pointerEvents=1;fontSize=12;movable=1;resizable=1;rotatable=1;deletable=1;editable=1;locked=0;fontFamily=JetBrains Mono;fontSource=https%3A%2F%2Ffonts.googleapis.com%2Fcss%3Ffamily%3DJetBrains%2BMono;" parent="yZcuGgpaBFYyNksr62-L-123" vertex="1">
          <mxGeometry x="120" width="20" height="20" as="geometry">
            <mxRectangle width="20" height="20" as="alternateBounds" />
          </mxGeometry>
        </mxCell>
        <mxCell id="yZcuGgpaBFYyNksr62-L-131" value="TO" style="shape=partialRectangle;html=1;whiteSpace=wrap;connectable=1;strokeColor=inherit;overflow=hidden;fillColor=none;top=0;left=0;bottom=0;right=0;pointerEvents=1;fontSize=12;movable=1;resizable=1;rotatable=1;deletable=1;editable=1;locked=0;fontFamily=JetBrains Mono;fontSource=https%3A%2F%2Ffonts.googleapis.com%2Fcss%3Ffamily%3DJetBrains%2BMono;" parent="yZcuGgpaBFYyNksr62-L-123" vertex="1">
          <mxGeometry x="140" width="20" height="20" as="geometry">
            <mxRectangle width="20" height="20" as="alternateBounds" />
          </mxGeometry>
        </mxCell>
        <mxCell id="yZcuGgpaBFYyNksr62-L-8" value="" style="swimlane;swimlaneHead=0;swimlaneBody=0;fontStyle=0;connectable=0;strokeColor=inherit;fillColor=none;startSize=0;collapsible=0;recursiveResize=0;expand=0;fontSize=16;fontFamily=JetBrains Mono;fontSource=https%3A%2F%2Ffonts.googleapis.com%2Fcss%3Ffamily%3DJetBrains%2BMono;" parent="yZcuGgpaBFYyNksr62-L-7" vertex="1">
          <mxGeometry x="160" width="70" height="40" as="geometry">
            <mxRectangle width="70" height="40" as="alternateBounds" />
          </mxGeometry>
        </mxCell>
        <mxCell id="yZcuGgpaBFYyNksr62-L-327" value="uint16" style="text;html=1;align=center;verticalAlign=middle;whiteSpace=wrap;rounded=0;fontFamily=JetBrains Mono;fontSource=https%3A%2F%2Ffonts.googleapis.com%2Fcss%3Ffamily%3DJetBrains%2BMono;" parent="yZcuGgpaBFYyNksr62-L-8" vertex="1">
          <mxGeometry width="70" height="40" as="geometry" />
        </mxCell>
        <mxCell id="yZcuGgpaBFYyNksr62-L-9" value="" style="swimlane;swimlaneHead=0;swimlaneBody=0;fontStyle=0;connectable=0;strokeColor=inherit;fillColor=none;startSize=0;collapsible=0;recursiveResize=0;expand=0;fontSize=16;fontFamily=JetBrains Mono;fontSource=https%3A%2F%2Ffonts.googleapis.com%2Fcss%3Ffamily%3DJetBrains%2BMono;" parent="yZcuGgpaBFYyNksr62-L-7" vertex="1">
          <mxGeometry x="230" width="240" height="40" as="geometry">
            <mxRectangle width="240" height="40" as="alternateBounds" />
          </mxGeometry>
        </mxCell>
        <mxCell id="yZcuGgpaBFYyNksr62-L-11" value="" style="shape=tableRow;horizontal=0;swimlaneHead=0;swimlaneBody=0;top=0;left=0;strokeColor=inherit;bottom=0;right=0;dropTarget=0;fontStyle=0;fillColor=none;points=[[0,0.5],[1,0.5]];portConstraint=eastwest;startSize=0;collapsible=0;recursiveResize=0;expand=0;fontSize=16;fontFamily=JetBrains Mono;fontSource=https%3A%2F%2Ffonts.googleapis.com%2Fcss%3Ffamily%3DJetBrains%2BMono;" parent="yZcuGgpaBFYyNksr62-L-2" vertex="1">
          <mxGeometry y="130" width="470" height="40" as="geometry" />
        </mxCell>
        <mxCell id="yZcuGgpaBFYyNksr62-L-62" style="swimlane;swimlaneHead=0;swimlaneBody=0;fontStyle=0;connectable=0;strokeColor=inherit;fillColor=none;startSize=0;collapsible=0;recursiveResize=0;expand=0;fontSize=16;fontFamily=JetBrains Mono;fontSource=https%3A%2F%2Ffonts.googleapis.com%2Fcss%3Ffamily%3DJetBrains%2BMono;" parent="yZcuGgpaBFYyNksr62-L-11" vertex="1">
          <mxGeometry width="160" height="40" as="geometry">
            <mxRectangle width="160" height="40" as="alternateBounds" />
          </mxGeometry>
        </mxCell>
        <mxCell id="yZcuGgpaBFYyNksr62-L-132" value="" style="shape=table;startSize=0;container=1;collapsible=0;childLayout=tableLayout;fontSize=16;movable=1;resizable=1;rotatable=1;deletable=1;editable=1;locked=0;connectable=1;fillColor=none;fontFamily=JetBrains Mono;fontSource=https%3A%2F%2Ffonts.googleapis.com%2Fcss%3Ffamily%3DJetBrains%2BMono;" parent="yZcuGgpaBFYyNksr62-L-62" vertex="1">
          <mxGeometry width="160" height="20" as="geometry" />
        </mxCell>
        <mxCell id="yZcuGgpaBFYyNksr62-L-133" value="" style="shape=tableRow;horizontal=0;startSize=0;swimlaneHead=0;swimlaneBody=0;strokeColor=inherit;top=0;left=0;bottom=0;right=0;collapsible=0;dropTarget=0;fillColor=none;points=[[0,0.5],[1,0.5]];portConstraint=eastwest;fontSize=16;movable=1;resizable=1;rotatable=1;deletable=1;editable=1;locked=0;connectable=1;fontFamily=JetBrains Mono;fontSource=https%3A%2F%2Ffonts.googleapis.com%2Fcss%3Ffamily%3DJetBrains%2BMono;" parent="yZcuGgpaBFYyNksr62-L-132" vertex="1">
          <mxGeometry width="160" height="20" as="geometry" />
        </mxCell>
        <mxCell id="yZcuGgpaBFYyNksr62-L-134" value="C" style="shape=partialRectangle;html=1;whiteSpace=wrap;connectable=1;strokeColor=inherit;overflow=hidden;fillColor=none;top=0;left=0;bottom=0;right=0;pointerEvents=1;fontSize=12;movable=1;resizable=1;rotatable=1;deletable=1;editable=1;locked=0;fontFamily=JetBrains Mono;fontSource=https%3A%2F%2Ffonts.googleapis.com%2Fcss%3Ffamily%3DJetBrains%2BMono;" parent="yZcuGgpaBFYyNksr62-L-133" vertex="1">
          <mxGeometry width="20" height="20" as="geometry">
            <mxRectangle width="20" height="20" as="alternateBounds" />
          </mxGeometry>
        </mxCell>
        <mxCell id="yZcuGgpaBFYyNksr62-L-135" value="F" style="shape=partialRectangle;html=1;whiteSpace=wrap;connectable=1;strokeColor=inherit;overflow=hidden;fillColor=none;top=0;left=0;bottom=0;right=0;pointerEvents=1;fontSize=12;movable=1;resizable=1;rotatable=1;deletable=1;editable=1;locked=0;fontFamily=JetBrains Mono;fontSource=https%3A%2F%2Ffonts.googleapis.com%2Fcss%3Ffamily%3DJetBrains%2BMono;" parent="yZcuGgpaBFYyNksr62-L-133" vertex="1">
          <mxGeometry x="20" width="20" height="20" as="geometry">
            <mxRectangle width="20" height="20" as="alternateBounds" />
          </mxGeometry>
        </mxCell>
        <mxCell id="yZcuGgpaBFYyNksr62-L-136" value="AI level" style="shape=partialRectangle;html=1;whiteSpace=wrap;connectable=1;strokeColor=inherit;overflow=hidden;fillColor=none;top=0;left=0;bottom=0;right=0;pointerEvents=1;fontSize=12;movable=1;resizable=1;rotatable=1;deletable=1;editable=1;locked=0;rowspan=1;colspan=3;fontFamily=JetBrains Mono;fontSource=https%3A%2F%2Ffonts.googleapis.com%2Fcss%3Ffamily%3DJetBrains%2BMono;" parent="yZcuGgpaBFYyNksr62-L-133" vertex="1">
          <mxGeometry x="40" width="60" height="20" as="geometry">
            <mxRectangle width="20" height="20" as="alternateBounds" />
          </mxGeometry>
        </mxCell>
        <mxCell id="yZcuGgpaBFYyNksr62-L-137" value="" style="shape=partialRectangle;html=1;whiteSpace=wrap;connectable=1;strokeColor=inherit;overflow=hidden;fillColor=none;top=0;left=0;bottom=0;right=0;pointerEvents=1;fontSize=16;movable=1;resizable=1;rotatable=1;deletable=1;editable=1;locked=0;" parent="yZcuGgpaBFYyNksr62-L-133" vertex="1" visible="0">
          <mxGeometry x="60" width="20" height="20" as="geometry">
            <mxRectangle width="20" height="20" as="alternateBounds" />
          </mxGeometry>
        </mxCell>
        <mxCell id="yZcuGgpaBFYyNksr62-L-138" style="shape=partialRectangle;html=1;whiteSpace=wrap;connectable=1;strokeColor=inherit;overflow=hidden;fillColor=none;top=0;left=0;bottom=0;right=0;pointerEvents=1;fontSize=16;movable=1;resizable=1;rotatable=1;deletable=1;editable=1;locked=0;" parent="yZcuGgpaBFYyNksr62-L-133" vertex="1" visible="0">
          <mxGeometry x="80" width="20" height="20" as="geometry">
            <mxRectangle width="20" height="20" as="alternateBounds" />
          </mxGeometry>
        </mxCell>
        <mxCell id="yZcuGgpaBFYyNksr62-L-139" value="Diff level" style="shape=partialRectangle;html=1;whiteSpace=wrap;connectable=1;strokeColor=inherit;overflow=hidden;fillColor=none;top=0;left=0;bottom=0;right=0;pointerEvents=1;fontSize=12;movable=1;resizable=1;rotatable=1;deletable=1;editable=1;locked=0;rowspan=1;colspan=3;fontFamily=JetBrains Mono;fontSource=https%3A%2F%2Ffonts.googleapis.com%2Fcss%3Ffamily%3DJetBrains%2BMono;" parent="yZcuGgpaBFYyNksr62-L-133" vertex="1">
          <mxGeometry x="100" width="60" height="20" as="geometry">
            <mxRectangle width="20" height="20" as="alternateBounds" />
          </mxGeometry>
        </mxCell>
        <mxCell id="yZcuGgpaBFYyNksr62-L-140" style="shape=partialRectangle;html=1;whiteSpace=wrap;connectable=1;strokeColor=inherit;overflow=hidden;fillColor=none;top=0;left=0;bottom=0;right=0;pointerEvents=1;fontSize=16;movable=1;resizable=1;rotatable=1;deletable=1;editable=1;locked=0;" parent="yZcuGgpaBFYyNksr62-L-133" vertex="1" visible="0">
          <mxGeometry x="120" width="20" height="20" as="geometry">
            <mxRectangle width="20" height="20" as="alternateBounds" />
          </mxGeometry>
        </mxCell>
        <mxCell id="yZcuGgpaBFYyNksr62-L-141" style="shape=partialRectangle;html=1;whiteSpace=wrap;connectable=1;strokeColor=inherit;overflow=hidden;fillColor=none;top=0;left=0;bottom=0;right=0;pointerEvents=1;fontSize=16;movable=1;resizable=1;rotatable=1;deletable=1;editable=1;locked=0;" parent="yZcuGgpaBFYyNksr62-L-133" vertex="1" visible="0">
          <mxGeometry x="140" width="20" height="20" as="geometry">
            <mxRectangle width="20" height="20" as="alternateBounds" />
          </mxGeometry>
        </mxCell>
        <mxCell id="yZcuGgpaBFYyNksr62-L-105" value="" style="shape=table;startSize=0;container=1;collapsible=0;childLayout=tableLayout;fontSize=16;movable=1;resizable=1;rotatable=1;deletable=1;editable=1;locked=0;connectable=1;fillColor=none;fontFamily=JetBrains Mono;fontSource=https%3A%2F%2Ffonts.googleapis.com%2Fcss%3Ffamily%3DJetBrains%2BMono;" parent="yZcuGgpaBFYyNksr62-L-62" vertex="1">
          <mxGeometry y="20" width="160" height="20" as="geometry" />
        </mxCell>
        <mxCell id="yZcuGgpaBFYyNksr62-L-106" value="" style="shape=tableRow;horizontal=0;startSize=0;swimlaneHead=0;swimlaneBody=0;strokeColor=inherit;top=0;left=0;bottom=0;right=0;collapsible=0;dropTarget=0;fillColor=none;points=[[0,0.5],[1,0.5]];portConstraint=eastwest;fontSize=16;movable=1;resizable=1;rotatable=1;deletable=1;editable=1;locked=0;connectable=1;fontFamily=JetBrains Mono;fontSource=https%3A%2F%2Ffonts.googleapis.com%2Fcss%3Ffamily%3DJetBrains%2BMono;" parent="yZcuGgpaBFYyNksr62-L-105" vertex="1">
          <mxGeometry width="160" height="20" as="geometry" />
        </mxCell>
        <mxCell id="yZcuGgpaBFYyNksr62-L-107" style="shape=partialRectangle;html=1;whiteSpace=wrap;connectable=1;strokeColor=inherit;overflow=hidden;fillColor=#919191;top=0;left=0;bottom=0;right=0;pointerEvents=1;fontSize=16;movable=1;resizable=1;rotatable=1;deletable=1;editable=1;locked=0;fillStyle=hatch;sketch=1;curveFitting=1;jiggle=2;fontFamily=JetBrains Mono;fontSource=https%3A%2F%2Ffonts.googleapis.com%2Fcss%3Ffamily%3DJetBrains%2BMono;" parent="yZcuGgpaBFYyNksr62-L-106" vertex="1">
          <mxGeometry width="140" height="20" as="geometry">
            <mxRectangle width="140" height="20" as="alternateBounds" />
          </mxGeometry>
        </mxCell>
        <mxCell id="yZcuGgpaBFYyNksr62-L-109" value="W" style="shape=partialRectangle;html=1;whiteSpace=wrap;connectable=1;strokeColor=inherit;overflow=hidden;fillColor=none;top=0;left=0;bottom=0;right=0;pointerEvents=1;fontSize=12;movable=1;resizable=1;rotatable=1;deletable=1;editable=1;locked=0;fontFamily=JetBrains Mono;fontSource=https%3A%2F%2Ffonts.googleapis.com%2Fcss%3Ffamily%3DJetBrains%2BMono;" parent="yZcuGgpaBFYyNksr62-L-106" vertex="1">
          <mxGeometry x="140" width="20" height="20" as="geometry">
            <mxRectangle width="20" height="20" as="alternateBounds" />
          </mxGeometry>
        </mxCell>
        <mxCell id="yZcuGgpaBFYyNksr62-L-12" value="" style="swimlane;swimlaneHead=0;swimlaneBody=0;fontStyle=0;connectable=0;strokeColor=inherit;fillColor=none;startSize=0;collapsible=0;recursiveResize=0;expand=0;fontSize=16;fontFamily=JetBrains Mono;fontSource=https%3A%2F%2Ffonts.googleapis.com%2Fcss%3Ffamily%3DJetBrains%2BMono;" parent="yZcuGgpaBFYyNksr62-L-11" vertex="1">
          <mxGeometry x="160" width="70" height="40" as="geometry">
            <mxRectangle width="70" height="40" as="alternateBounds" />
          </mxGeometry>
        </mxCell>
        <mxCell id="yZcuGgpaBFYyNksr62-L-331" value="uint16" style="text;html=1;align=center;verticalAlign=middle;whiteSpace=wrap;rounded=0;fontFamily=JetBrains Mono;fontSource=https%3A%2F%2Ffonts.googleapis.com%2Fcss%3Ffamily%3DJetBrains%2BMono;" parent="yZcuGgpaBFYyNksr62-L-12" vertex="1">
          <mxGeometry width="70" height="40" as="geometry" />
        </mxCell>
        <mxCell id="yZcuGgpaBFYyNksr62-L-13" value="" style="swimlane;swimlaneHead=0;swimlaneBody=0;fontStyle=0;connectable=0;strokeColor=inherit;fillColor=none;startSize=0;collapsible=0;recursiveResize=0;expand=0;fontSize=16;fontFamily=JetBrains Mono;fontSource=https%3A%2F%2Ffonts.googleapis.com%2Fcss%3Ffamily%3DJetBrains%2BMono;" parent="yZcuGgpaBFYyNksr62-L-11" vertex="1">
          <mxGeometry x="230" width="240" height="40" as="geometry">
            <mxRectangle width="240" height="40" as="alternateBounds" />
          </mxGeometry>
        </mxCell>
        <mxCell id="yZcuGgpaBFYyNksr62-L-180" value="Difficulty:" style="text;html=1;align=left;verticalAlign=middle;whiteSpace=wrap;rounded=0;spacingLeft=6;fontFamily=JetBrains Mono;fontSource=https%3A%2F%2Ffonts.googleapis.com%2Fcss%3Ffamily%3DJetBrains%2BMono;" parent="yZcuGgpaBFYyNksr62-L-13" vertex="1">
          <mxGeometry width="70" height="40" as="geometry" />
        </mxCell>
        <mxCell id="yZcuGgpaBFYyNksr62-L-181" value="&lt;font&gt;C=3rd camera, F=adv flight,&amp;nbsp;&lt;/font&gt;&lt;div&gt;&lt;font&gt;AI/Diff Level = 0-3 level,&lt;/font&gt;&lt;/div&gt;&lt;div&gt;&lt;font&gt;W = crosshair&lt;/font&gt;&lt;/div&gt;" style="text;html=1;align=center;verticalAlign=middle;whiteSpace=wrap;rounded=0;spacing=0;fontSize=8;fontFamily=JetBrains Mono;fontSource=https%3A%2F%2Ffonts.googleapis.com%2Fcss%3Ffamily%3DJetBrains%2BMono;" parent="yZcuGgpaBFYyNksr62-L-13" vertex="1">
          <mxGeometry x="90" width="150" height="40" as="geometry" />
        </mxCell>
        <mxCell id="yZcuGgpaBFYyNksr62-L-173" style="shape=tableRow;horizontal=0;swimlaneHead=0;swimlaneBody=0;top=0;left=0;strokeColor=inherit;bottom=0;right=0;dropTarget=0;fontStyle=0;fillColor=none;points=[[0,0.5],[1,0.5]];portConstraint=eastwest;startSize=0;collapsible=0;recursiveResize=0;expand=0;fontSize=16;fontFamily=JetBrains Mono;fontSource=https%3A%2F%2Ffonts.googleapis.com%2Fcss%3Ffamily%3DJetBrains%2BMono;" parent="yZcuGgpaBFYyNksr62-L-2" vertex="1">
          <mxGeometry y="170" width="470" height="150" as="geometry" />
        </mxCell>
        <mxCell id="yZcuGgpaBFYyNksr62-L-174" style="swimlane;swimlaneHead=0;swimlaneBody=0;fontStyle=0;connectable=0;strokeColor=inherit;fillColor=none;startSize=0;collapsible=0;recursiveResize=0;expand=0;fontSize=16;fontFamily=JetBrains Mono;fontSource=https%3A%2F%2Ffonts.googleapis.com%2Fcss%3Ffamily%3DJetBrains%2BMono;" parent="yZcuGgpaBFYyNksr62-L-173" vertex="1">
          <mxGeometry width="160" height="150" as="geometry">
            <mxRectangle width="160" height="150" as="alternateBounds" />
          </mxGeometry>
        </mxCell>
        <mxCell id="yZcuGgpaBFYyNksr62-L-253" value="DLC &lt;b&gt;K&lt;/b&gt; Hash" style="text;html=1;align=center;verticalAlign=middle;whiteSpace=wrap;rounded=0;fontFamily=JetBrains Mono;fontSource=https%3A%2F%2Ffonts.googleapis.com%2Fcss%3Ffamily%3DJetBrains%2BMono;" parent="yZcuGgpaBFYyNksr62-L-174" vertex="1">
          <mxGeometry width="160" height="50" as="geometry" />
        </mxCell>
        <mxCell id="yZcuGgpaBFYyNksr62-L-425" value="" style="endArrow=none;html=1;rounded=0;entryX=0;entryY=1;entryDx=0;entryDy=0;exitX=1;exitY=1;exitDx=0;exitDy=0;fontFamily=JetBrains Mono;fontSource=https%3A%2F%2Ffonts.googleapis.com%2Fcss%3Ffamily%3DJetBrains%2BMono;" parent="yZcuGgpaBFYyNksr62-L-174" source="yZcuGgpaBFYyNksr62-L-253" target="yZcuGgpaBFYyNksr62-L-253" edge="1">
          <mxGeometry width="50" height="50" relative="1" as="geometry">
            <mxPoint x="340" y="100" as="sourcePoint" />
            <mxPoint x="390" y="50" as="targetPoint" />
          </mxGeometry>
        </mxCell>
        <mxCell id="yZcuGgpaBFYyNksr62-L-175" style="swimlane;swimlaneHead=0;swimlaneBody=0;fontStyle=0;connectable=0;strokeColor=inherit;fillColor=none;startSize=0;collapsible=0;recursiveResize=0;expand=0;fontSize=16;fontFamily=JetBrains Mono;fontSource=https%3A%2F%2Ffonts.googleapis.com%2Fcss%3Ffamily%3DJetBrains%2BMono;" parent="yZcuGgpaBFYyNksr62-L-173" vertex="1">
          <mxGeometry x="160" width="70" height="150" as="geometry">
            <mxRectangle width="70" height="150" as="alternateBounds" />
          </mxGeometry>
        </mxCell>
        <mxCell id="yZcuGgpaBFYyNksr62-L-341" value="uint32" style="text;html=1;align=center;verticalAlign=middle;whiteSpace=wrap;rounded=0;fontFamily=JetBrains Mono;fontSource=https%3A%2F%2Ffonts.googleapis.com%2Fcss%3Ffamily%3DJetBrains%2BMono;" parent="yZcuGgpaBFYyNksr62-L-175" vertex="1">
          <mxGeometry width="70" height="50" as="geometry" />
        </mxCell>
        <mxCell id="yZcuGgpaBFYyNksr62-L-423" value="" style="endArrow=none;html=1;rounded=0;entryX=0;entryY=1;entryDx=0;entryDy=0;exitX=1;exitY=1;exitDx=0;exitDy=0;fontFamily=JetBrains Mono;fontSource=https%3A%2F%2Ffonts.googleapis.com%2Fcss%3Ffamily%3DJetBrains%2BMono;" parent="yZcuGgpaBFYyNksr62-L-175" source="yZcuGgpaBFYyNksr62-L-341" target="yZcuGgpaBFYyNksr62-L-341" edge="1">
          <mxGeometry width="50" height="50" relative="1" as="geometry">
            <mxPoint x="180" y="100" as="sourcePoint" />
            <mxPoint x="230" y="50" as="targetPoint" />
          </mxGeometry>
        </mxCell>
        <mxCell id="yZcuGgpaBFYyNksr62-L-426" value="DLC ... Hash" style="text;html=1;align=center;verticalAlign=middle;whiteSpace=wrap;rounded=0;fontFamily=JetBrains Mono;fontSource=https%3A%2F%2Ffonts.googleapis.com%2Fcss%3Ffamily%3DJetBrains%2BMono;" parent="yZcuGgpaBFYyNksr62-L-175" vertex="1">
          <mxGeometry x="-160" y="100" width="160" height="50" as="geometry" />
        </mxCell>
        <mxCell id="yZcuGgpaBFYyNksr62-L-424" value="uint32" style="text;html=1;align=center;verticalAlign=middle;whiteSpace=wrap;rounded=0;fontFamily=JetBrains Mono;fontSource=https%3A%2F%2Ffonts.googleapis.com%2Fcss%3Ffamily%3DJetBrains%2BMono;" parent="yZcuGgpaBFYyNksr62-L-175" vertex="1">
          <mxGeometry y="100" width="70" height="50" as="geometry" />
        </mxCell>
        <mxCell id="yZcuGgpaBFYyNksr62-L-513" value="DLC &lt;b&gt;M&lt;/b&gt; Hash" style="text;html=1;align=center;verticalAlign=middle;whiteSpace=wrap;rounded=0;fontFamily=JetBrains Mono;fontSource=https%3A%2F%2Ffonts.googleapis.com%2Fcss%3Ffamily%3DJetBrains%2BMono;" parent="yZcuGgpaBFYyNksr62-L-175" vertex="1">
          <mxGeometry x="-160" y="50" width="160" height="50" as="geometry" />
        </mxCell>
        <mxCell id="yZcuGgpaBFYyNksr62-L-514" value="" style="endArrow=none;html=1;rounded=0;entryX=0;entryY=1;entryDx=0;entryDy=0;exitX=1;exitY=1;exitDx=0;exitDy=0;fontFamily=JetBrains Mono;fontSource=https%3A%2F%2Ffonts.googleapis.com%2Fcss%3Ffamily%3DJetBrains%2BMono;" parent="yZcuGgpaBFYyNksr62-L-175" source="yZcuGgpaBFYyNksr62-L-513" target="yZcuGgpaBFYyNksr62-L-513" edge="1">
          <mxGeometry width="50" height="50" relative="1" as="geometry">
            <mxPoint x="180" y="150" as="sourcePoint" />
            <mxPoint x="230" y="100" as="targetPoint" />
          </mxGeometry>
        </mxCell>
        <mxCell id="yZcuGgpaBFYyNksr62-L-515" value="uint32" style="text;html=1;align=center;verticalAlign=middle;whiteSpace=wrap;rounded=0;fontFamily=JetBrains Mono;fontSource=https%3A%2F%2Ffonts.googleapis.com%2Fcss%3Ffamily%3DJetBrains%2BMono;" parent="yZcuGgpaBFYyNksr62-L-175" vertex="1">
          <mxGeometry y="50" width="70" height="50" as="geometry" />
        </mxCell>
        <mxCell id="yZcuGgpaBFYyNksr62-L-516" value="" style="endArrow=none;html=1;rounded=0;entryX=0;entryY=1;entryDx=0;entryDy=0;exitX=1;exitY=1;exitDx=0;exitDy=0;fontFamily=JetBrains Mono;fontSource=https%3A%2F%2Ffonts.googleapis.com%2Fcss%3Ffamily%3DJetBrains%2BMono;" parent="yZcuGgpaBFYyNksr62-L-175" source="yZcuGgpaBFYyNksr62-L-515" target="yZcuGgpaBFYyNksr62-L-515" edge="1">
          <mxGeometry width="50" height="50" relative="1" as="geometry">
            <mxPoint x="180" y="150" as="sourcePoint" />
            <mxPoint x="230" y="100" as="targetPoint" />
          </mxGeometry>
        </mxCell>
        <mxCell id="yZcuGgpaBFYyNksr62-L-176" style="swimlane;swimlaneHead=0;swimlaneBody=0;fontStyle=0;connectable=0;strokeColor=inherit;fillColor=none;startSize=0;collapsible=0;recursiveResize=0;expand=0;fontSize=16;fontFamily=JetBrains Mono;fontSource=https%3A%2F%2Ffonts.googleapis.com%2Fcss%3Ffamily%3DJetBrains%2BMono;" parent="yZcuGgpaBFYyNksr62-L-173" vertex="1">
          <mxGeometry x="230" width="240" height="150" as="geometry">
            <mxRectangle width="240" height="150" as="alternateBounds" />
          </mxGeometry>
        </mxCell>
        <mxCell id="yZcuGgpaBFYyNksr62-L-342" value="Short hash for each DLC" style="text;html=1;align=left;verticalAlign=middle;whiteSpace=wrap;rounded=0;spacingLeft=6;fontFamily=JetBrains Mono;fontSource=https%3A%2F%2Ffonts.googleapis.com%2Fcss%3Ffamily%3DJetBrains%2BMono;" parent="yZcuGgpaBFYyNksr62-L-176" vertex="1">
          <mxGeometry width="70" height="150" as="geometry" />
        </mxCell>
        <mxCell id="yZcuGgpaBFYyNksr62-L-517" value="&lt;div&gt;Karts&lt;/div&gt;&lt;div&gt;Marksmen&lt;/div&gt;&lt;div&gt;Helicopters&lt;/div&gt;&lt;div&gt;Zeus&lt;/div&gt;&lt;div&gt;Apex&lt;/div&gt;&lt;div&gt;Jets&lt;/div&gt;&lt;div&gt;Laws of War&lt;/div&gt;&lt;div&gt;Malden&lt;/div&gt;&lt;div&gt;Tac-Ops Mission Pack&lt;/div&gt;&lt;div&gt;Tanks&lt;/div&gt;&lt;div&gt;Enoch (Obsolete)&lt;/div&gt;&lt;div&gt;Contact&lt;/div&gt;&lt;div&gt;Art of War&lt;/div&gt;" style="text;html=1;align=left;verticalAlign=middle;whiteSpace=wrap;rounded=0;spacingLeft=0;fontSize=9;fontFamily=JetBrains Mono;fontSource=https%3A%2F%2Ffonts.googleapis.com%2Fcss%3Ffamily%3DJetBrains%2BMono;glass=0;" parent="yZcuGgpaBFYyNksr62-L-176" vertex="1">
          <mxGeometry x="120" width="120" height="150" as="geometry" />
        </mxCell>
        <mxCell id="yZcuGgpaBFYyNksr62-L-427" value="&lt;div&gt;0x1&lt;/div&gt;&lt;div&gt;0x2&lt;/div&gt;&lt;div&gt;0x4&lt;/div&gt;&lt;div&gt;0x8&lt;/div&gt;&lt;div&gt;0x10&lt;/div&gt;&lt;div&gt;0x20&lt;/div&gt;&lt;div&gt;0x40&lt;/div&gt;&lt;div&gt;0x80&lt;/div&gt;&lt;div&gt;0x100&lt;/div&gt;&lt;div&gt;0x200&lt;/div&gt;&lt;div&gt;0x400&lt;/div&gt;&lt;div&gt;0x800&lt;/div&gt;&lt;div&gt;0x1000&lt;/div&gt;" style="text;html=1;align=right;verticalAlign=middle;whiteSpace=wrap;rounded=0;spacingLeft=6;fontSize=9;fontFamily=JetBrains Mono;fontStyle=1;fontSource=https%3A%2F%2Ffonts.googleapis.com%2Fcss%3Ffamily%3DJetBrains%2BMono;" parent="yZcuGgpaBFYyNksr62-L-176" vertex="1">
          <mxGeometry x="80" width="40" height="150" as="geometry" />
        </mxCell>
        <mxCell id="yZcuGgpaBFYyNksr62-L-519" value="" style="endArrow=none;html=1;rounded=0;entryX=0;entryY=0;entryDx=0;entryDy=0;exitX=1;exitY=1;exitDx=0;exitDy=0;fontFamily=JetBrains Mono;fontSource=https%3A%2F%2Ffonts.googleapis.com%2Fcss%3Ffamily%3DJetBrains%2BMono;" parent="yZcuGgpaBFYyNksr62-L-176" source="yZcuGgpaBFYyNksr62-L-427" target="yZcuGgpaBFYyNksr62-L-517" edge="1">
          <mxGeometry width="50" height="50" relative="1" as="geometry">
            <mxPoint x="110" y="200" as="sourcePoint" />
            <mxPoint x="160" y="150" as="targetPoint" />
          </mxGeometry>
        </mxCell>
        <mxCell id="yZcuGgpaBFYyNksr62-L-520" value="" style="endArrow=none;html=1;rounded=0;entryX=0;entryY=0;entryDx=0;entryDy=0;exitX=0;exitY=1;exitDx=0;exitDy=0;fontFamily=JetBrains Mono;fontSource=https%3A%2F%2Ffonts.googleapis.com%2Fcss%3Ffamily%3DJetBrains%2BMono;" parent="yZcuGgpaBFYyNksr62-L-176" source="yZcuGgpaBFYyNksr62-L-427" target="yZcuGgpaBFYyNksr62-L-427" edge="1">
          <mxGeometry width="50" height="50" relative="1" as="geometry">
            <mxPoint x="110" y="200" as="sourcePoint" />
            <mxPoint x="160" y="150" as="targetPoint" />
          </mxGeometry>
        </mxCell>
        <mxCell id="yZcuGgpaBFYyNksr62-L-337" style="shape=tableRow;horizontal=0;swimlaneHead=0;swimlaneBody=0;top=0;left=0;strokeColor=inherit;bottom=0;right=0;dropTarget=0;fontStyle=0;fillColor=none;points=[[0,0.5],[1,0.5]];portConstraint=eastwest;startSize=0;collapsible=0;recursiveResize=0;expand=0;fontSize=16;fontFamily=JetBrains Mono;fontSource=https%3A%2F%2Ffonts.googleapis.com%2Fcss%3Ffamily%3DJetBrains%2BMono;" parent="yZcuGgpaBFYyNksr62-L-2" vertex="1">
          <mxGeometry y="320" width="470" height="210" as="geometry" />
        </mxCell>
        <mxCell id="yZcuGgpaBFYyNksr62-L-338" style="swimlane;swimlaneHead=0;swimlaneBody=0;fontStyle=0;connectable=0;strokeColor=inherit;fillColor=none;startSize=0;collapsible=0;recursiveResize=0;expand=0;fontSize=16;fontFamily=JetBrains Mono;fontSource=https%3A%2F%2Ffonts.googleapis.com%2Fcss%3Ffamily%3DJetBrains%2BMono;" parent="yZcuGgpaBFYyNksr62-L-337" vertex="1">
          <mxGeometry width="160" height="210" as="geometry">
            <mxRectangle width="160" height="210" as="alternateBounds" />
          </mxGeometry>
        </mxCell>
        <mxCell id="buXjULTb7Ma8A_ARaXhs-26" value="Mods count" style="text;html=1;align=center;verticalAlign=middle;whiteSpace=wrap;rounded=0;fontFamily=JetBrains Mono;fontSource=https%3A%2F%2Ffonts.googleapis.com%2Fcss%3Ffamily%3DJetBrains%2BMono;" parent="yZcuGgpaBFYyNksr62-L-338" vertex="1">
          <mxGeometry width="160" height="20" as="geometry" />
        </mxCell>
        <mxCell id="buXjULTb7Ma8A_ARaXhs-27" value="Mod &lt;b&gt;j&lt;/b&gt;&amp;nbsp;hash" style="text;html=1;align=center;verticalAlign=middle;whiteSpace=wrap;rounded=0;fontFamily=JetBrains Mono;fontSource=https%3A%2F%2Ffonts.googleapis.com%2Fcss%3Ffamily%3DJetBrains%2BMono;" parent="yZcuGgpaBFYyNksr62-L-338" vertex="1">
          <mxGeometry y="20" width="160" height="50" as="geometry" />
        </mxCell>
        <mxCell id="buXjULTb7Ma8A_ARaXhs-28" value="Mod&amp;nbsp;&lt;b&gt;j&lt;/b&gt;&amp;nbsp;Steam ID" style="text;html=1;align=center;verticalAlign=middle;whiteSpace=wrap;rounded=0;fontFamily=JetBrains Mono;fontSource=https%3A%2F%2Ffonts.googleapis.com%2Fcss%3Ffamily%3DJetBrains%2BMono;" parent="yZcuGgpaBFYyNksr62-L-338" vertex="1">
          <mxGeometry y="90" width="160" height="50" as="geometry" />
        </mxCell>
        <mxCell id="buXjULTb7Ma8A_ARaXhs-20" value="" style="shape=table;startSize=0;container=1;collapsible=0;childLayout=tableLayout;fontSize=16;movable=1;resizable=1;rotatable=1;deletable=1;editable=1;locked=0;connectable=1;fillColor=none;fontFamily=JetBrains Mono;fontSource=https%3A%2F%2Ffonts.googleapis.com%2Fcss%3Ffamily%3DJetBrains%2BMono;" parent="yZcuGgpaBFYyNksr62-L-338" vertex="1">
          <mxGeometry y="70" width="160" height="20" as="geometry" />
        </mxCell>
        <mxCell id="buXjULTb7Ma8A_ARaXhs-21" value="" style="shape=tableRow;horizontal=0;startSize=0;swimlaneHead=0;swimlaneBody=0;strokeColor=inherit;top=0;left=0;bottom=0;right=0;collapsible=0;dropTarget=0;fillColor=none;points=[[0,0.5],[1,0.5]];portConstraint=eastwest;fontSize=16;movable=1;resizable=1;rotatable=1;deletable=1;editable=1;locked=0;connectable=1;fontFamily=JetBrains Mono;fontSource=https%3A%2F%2Ffonts.googleapis.com%2Fcss%3Ffamily%3DJetBrains%2BMono;" parent="buXjULTb7Ma8A_ARaXhs-20" vertex="1">
          <mxGeometry width="160" height="20" as="geometry" />
        </mxCell>
        <mxCell id="buXjULTb7Ma8A_ARaXhs-22" style="shape=partialRectangle;html=1;whiteSpace=wrap;connectable=1;strokeColor=inherit;overflow=hidden;fillColor=#919191;top=0;left=0;bottom=0;right=0;pointerEvents=1;fontSize=16;movable=1;resizable=1;rotatable=1;deletable=1;editable=1;locked=0;fillStyle=hatch;sketch=1;curveFitting=1;jiggle=2;fontFamily=JetBrains Mono;fontSource=https%3A%2F%2Ffonts.googleapis.com%2Fcss%3Ffamily%3DJetBrains%2BMono;" parent="buXjULTb7Ma8A_ARaXhs-21" vertex="1">
          <mxGeometry width="60" height="20" as="geometry">
            <mxRectangle width="60" height="20" as="alternateBounds" />
          </mxGeometry>
        </mxCell>
        <mxCell id="buXjULTb7Ma8A_ARaXhs-29" value="X" style="shape=partialRectangle;html=1;whiteSpace=wrap;connectable=1;strokeColor=inherit;overflow=hidden;fillColor=none;top=0;left=0;bottom=0;right=0;pointerEvents=1;fontSize=12;movable=1;resizable=1;rotatable=1;deletable=1;editable=1;locked=0;fontFamily=JetBrains Mono;fontSource=https%3A%2F%2Ffonts.googleapis.com%2Fcss%3Ffamily%3DJetBrains%2BMono;" parent="buXjULTb7Ma8A_ARaXhs-21" vertex="1">
          <mxGeometry x="60" width="20" height="20" as="geometry">
            <mxRectangle width="20" height="20" as="alternateBounds" />
          </mxGeometry>
        </mxCell>
        <mxCell id="buXjULTb7Ma8A_ARaXhs-23" value="ID length" style="shape=partialRectangle;html=1;whiteSpace=wrap;connectable=1;strokeColor=inherit;overflow=hidden;fillColor=none;top=0;left=0;bottom=0;right=0;pointerEvents=1;fontSize=12;movable=1;resizable=1;rotatable=1;deletable=1;editable=1;locked=0;fontFamily=JetBrains Mono;fontSource=https%3A%2F%2Ffonts.googleapis.com%2Fcss%3Ffamily%3DJetBrains%2BMono;" parent="buXjULTb7Ma8A_ARaXhs-21" vertex="1">
          <mxGeometry x="80" width="80" height="20" as="geometry">
            <mxRectangle width="80" height="20" as="alternateBounds" />
          </mxGeometry>
        </mxCell>
        <mxCell id="buXjULTb7Ma8A_ARaXhs-146" value="Mod&amp;nbsp;&lt;b&gt;j&lt;/b&gt;&amp;nbsp;name length" style="text;html=1;align=center;verticalAlign=middle;whiteSpace=wrap;rounded=0;fontFamily=JetBrains Mono;fontSource=https%3A%2F%2Ffonts.googleapis.com%2Fcss%3Ffamily%3DJetBrains%2BMono;" parent="yZcuGgpaBFYyNksr62-L-338" vertex="1">
          <mxGeometry y="140" width="160" height="20" as="geometry" />
        </mxCell>
        <mxCell id="buXjULTb7Ma8A_ARaXhs-147" value="Mod&amp;nbsp;&lt;b&gt;j&lt;/b&gt;&amp;nbsp;name" style="text;html=1;align=center;verticalAlign=middle;whiteSpace=wrap;rounded=0;fontFamily=JetBrains Mono;fontSource=https%3A%2F%2Ffonts.googleapis.com%2Fcss%3Ffamily%3DJetBrains%2BMono;" parent="yZcuGgpaBFYyNksr62-L-338" vertex="1">
          <mxGeometry y="160" width="160" height="50" as="geometry" />
        </mxCell>
        <mxCell id="buXjULTb7Ma8A_ARaXhs-142" value="is DLC" style="text;html=1;align=center;verticalAlign=middle;whiteSpace=wrap;rounded=0;rotation=-60;fontColor=#331414;textShadow=1;" parent="yZcuGgpaBFYyNksr62-L-338" vertex="1">
          <mxGeometry x="-4" y="31" width="50" height="20" as="geometry" />
        </mxCell>
        <mxCell id="buXjULTb7Ma8A_ARaXhs-143" style="rounded=0;orthogonalLoop=1;jettySize=auto;html=1;entryX=0;entryY=0.5;entryDx=0;entryDy=0;exitX=0.5;exitY=1;exitDx=0;exitDy=0;edgeStyle=orthogonalEdgeStyle;curved=1;strokeColor=#331414;shadow=1;flowAnimation=1;fontColor=#331414;" parent="yZcuGgpaBFYyNksr62-L-338" source="buXjULTb7Ma8A_ARaXhs-142" target="buXjULTb7Ma8A_ARaXhs-29" edge="1">
          <mxGeometry relative="1" as="geometry">
            <Array as="points">
              <mxPoint x="40" y="46" />
              <mxPoint x="40" y="80" />
            </Array>
          </mxGeometry>
        </mxCell>
        <mxCell id="buXjULTb7Ma8A_ARaXhs-12" value="" style="endArrow=none;html=1;rounded=0;entryX=1;entryY=0;entryDx=0;entryDy=0;" parent="yZcuGgpaBFYyNksr62-L-338" target="buXjULTb7Ma8A_ARaXhs-266" edge="1">
          <mxGeometry width="50" height="50" relative="1" as="geometry">
            <mxPoint y="160" as="sourcePoint" />
            <mxPoint x="440" y="160" as="targetPoint" />
          </mxGeometry>
        </mxCell>
        <mxCell id="yZcuGgpaBFYyNksr62-L-339" style="swimlane;swimlaneHead=0;swimlaneBody=0;fontStyle=0;connectable=0;strokeColor=inherit;fillColor=none;startSize=0;collapsible=0;recursiveResize=0;expand=0;fontSize=16;fontFamily=JetBrains Mono;fontSource=https%3A%2F%2Ffonts.googleapis.com%2Fcss%3Ffamily%3DJetBrains%2BMono;" parent="yZcuGgpaBFYyNksr62-L-337" vertex="1">
          <mxGeometry x="160" width="70" height="210" as="geometry">
            <mxRectangle width="70" height="210" as="alternateBounds" />
          </mxGeometry>
        </mxCell>
        <mxCell id="buXjULTb7Ma8A_ARaXhs-8" value="byte" style="text;html=1;align=center;verticalAlign=middle;whiteSpace=wrap;rounded=0;fontFamily=JetBrains Mono;fontSource=https%3A%2F%2Ffonts.googleapis.com%2Fcss%3Ffamily%3DJetBrains%2BMono;" parent="yZcuGgpaBFYyNksr62-L-339" vertex="1">
          <mxGeometry width="70" height="20" as="geometry" />
        </mxCell>
        <mxCell id="buXjULTb7Ma8A_ARaXhs-13" value="uint32" style="text;html=1;align=center;verticalAlign=middle;whiteSpace=wrap;rounded=0;fontFamily=JetBrains Mono;fontSource=https%3A%2F%2Ffonts.googleapis.com%2Fcss%3Ffamily%3DJetBrains%2BMono;" parent="yZcuGgpaBFYyNksr62-L-339" vertex="1">
          <mxGeometry y="20" width="70" height="50" as="geometry" />
        </mxCell>
        <mxCell id="buXjULTb7Ma8A_ARaXhs-14" value="byte" style="text;html=1;align=center;verticalAlign=middle;whiteSpace=wrap;rounded=0;fontFamily=JetBrains Mono;fontSource=https%3A%2F%2Ffonts.googleapis.com%2Fcss%3Ffamily%3DJetBrains%2BMono;" parent="yZcuGgpaBFYyNksr62-L-339" vertex="1">
          <mxGeometry y="70" width="70" height="20" as="geometry" />
        </mxCell>
        <mxCell id="buXjULTb7Ma8A_ARaXhs-17" value="byte" style="text;html=1;align=center;verticalAlign=middle;whiteSpace=wrap;rounded=0;fontFamily=JetBrains Mono;fontSource=https%3A%2F%2Ffonts.googleapis.com%2Fcss%3Ffamily%3DJetBrains%2BMono;" parent="yZcuGgpaBFYyNksr62-L-339" vertex="1">
          <mxGeometry y="140" width="70" height="20" as="geometry" />
        </mxCell>
        <mxCell id="buXjULTb7Ma8A_ARaXhs-18" value="uint&lt;div&gt;&lt;font style=&quot;font-size: 10px;&quot;&gt;8/16/32/64&lt;/font&gt;&lt;/div&gt;" style="text;html=1;align=center;verticalAlign=middle;whiteSpace=wrap;rounded=0;fontFamily=JetBrains Mono;fontSource=https%3A%2F%2Ffonts.googleapis.com%2Fcss%3Ffamily%3DJetBrains%2BMono;" parent="yZcuGgpaBFYyNksr62-L-339" vertex="1">
          <mxGeometry y="90" width="70" height="50" as="geometry" />
        </mxCell>
        <mxCell id="buXjULTb7Ma8A_ARaXhs-19" value="string&lt;div&gt;(1-256)&lt;/div&gt;" style="text;html=1;align=center;verticalAlign=middle;whiteSpace=wrap;rounded=0;fontFamily=JetBrains Mono;fontSource=https%3A%2F%2Ffonts.googleapis.com%2Fcss%3Ffamily%3DJetBrains%2BMono;" parent="yZcuGgpaBFYyNksr62-L-339" vertex="1">
          <mxGeometry y="160" width="70" height="50" as="geometry" />
        </mxCell>
        <mxCell id="yZcuGgpaBFYyNksr62-L-340" style="swimlane;swimlaneHead=0;swimlaneBody=0;fontStyle=0;connectable=0;strokeColor=inherit;fillColor=none;startSize=0;collapsible=0;recursiveResize=0;expand=0;fontSize=16;fontFamily=JetBrains Mono;fontSource=https%3A%2F%2Ffonts.googleapis.com%2Fcss%3Ffamily%3DJetBrains%2BMono;" parent="yZcuGgpaBFYyNksr62-L-337" vertex="1">
          <mxGeometry x="230" width="240" height="210" as="geometry">
            <mxRectangle width="240" height="210" as="alternateBounds" />
          </mxGeometry>
        </mxCell>
        <mxCell id="buXjULTb7Ma8A_ARaXhs-10" value="" style="endArrow=none;html=1;rounded=0;entryX=1;entryY=0;entryDx=0;entryDy=0;" parent="yZcuGgpaBFYyNksr62-L-340" target="buXjULTb7Ma8A_ARaXhs-141" edge="1">
          <mxGeometry width="50" height="50" relative="1" as="geometry">
            <mxPoint x="-230" y="70" as="sourcePoint" />
            <mxPoint x="290" y="70" as="targetPoint" />
          </mxGeometry>
        </mxCell>
        <mxCell id="buXjULTb7Ma8A_ARaXhs-11" value="" style="endArrow=none;html=1;rounded=0;entryX=1;entryY=1;entryDx=0;entryDy=0;" parent="yZcuGgpaBFYyNksr62-L-340" target="buXjULTb7Ma8A_ARaXhs-141" edge="1">
          <mxGeometry width="50" height="50" relative="1" as="geometry">
            <mxPoint x="-230" y="90" as="sourcePoint" />
            <mxPoint x="290" y="89.99999999999999" as="targetPoint" />
          </mxGeometry>
        </mxCell>
        <mxCell id="buXjULTb7Ma8A_ARaXhs-16" value="" style="endArrow=none;html=1;rounded=0;entryX=1;entryY=1;entryDx=0;entryDy=0;" parent="yZcuGgpaBFYyNksr62-L-340" target="buXjULTb7Ma8A_ARaXhs-144" edge="1">
          <mxGeometry width="50" height="50" relative="1" as="geometry">
            <mxPoint x="-230" y="140" as="sourcePoint" />
            <mxPoint x="290" y="140" as="targetPoint" />
          </mxGeometry>
        </mxCell>
        <mxCell id="buXjULTb7Ma8A_ARaXhs-140" value="Number of mods in the section" style="text;html=1;align=left;verticalAlign=middle;whiteSpace=wrap;rounded=0;spacingLeft=6;fontFamily=JetBrains Mono;fontSource=https%3A%2F%2Ffonts.googleapis.com%2Fcss%3Ffamily%3DJetBrains%2BMono;" parent="yZcuGgpaBFYyNksr62-L-340" vertex="1">
          <mxGeometry width="240" height="20" as="geometry" />
        </mxCell>
        <mxCell id="buXjULTb7Ma8A_ARaXhs-141" value="Length of ID, if X set it&#39;s DLC&amp;nbsp;" style="text;html=1;align=left;verticalAlign=middle;whiteSpace=wrap;rounded=0;spacingLeft=6;fontFamily=JetBrains Mono;fontSource=https%3A%2F%2Ffonts.googleapis.com%2Fcss%3Ffamily%3DJetBrains%2BMono;fontSize=12;" parent="yZcuGgpaBFYyNksr62-L-340" vertex="1">
          <mxGeometry y="70" width="240" height="20" as="geometry" />
        </mxCell>
        <mxCell id="buXjULTb7Ma8A_ARaXhs-144" value="Steam Workshop ID &lt;font style=&quot;font-size: 10px;&quot;&gt;(Mod)&lt;/font&gt;&lt;div&gt;Steam AppID &lt;font style=&quot;font-size: 10px;&quot;&gt;(uint32 Creator DLC)&lt;/font&gt;&lt;/div&gt;&lt;div&gt;&lt;font&gt;ID 0 use in private mods&lt;/font&gt;&lt;/div&gt;" style="text;html=1;align=left;verticalAlign=middle;whiteSpace=wrap;rounded=0;spacingLeft=6;fontFamily=JetBrains Mono;fontSource=https%3A%2F%2Ffonts.googleapis.com%2Fcss%3Ffamily%3DJetBrains%2BMono;fontSize=12;" parent="yZcuGgpaBFYyNksr62-L-340" vertex="1">
          <mxGeometry y="90" width="240" height="50" as="geometry" />
        </mxCell>
        <mxCell id="buXjULTb7Ma8A_ARaXhs-145" value="Short hash for each Mod" style="text;html=1;align=left;verticalAlign=middle;whiteSpace=wrap;rounded=0;spacingLeft=6;fontFamily=JetBrains Mono;fontSource=https%3A%2F%2Ffonts.googleapis.com%2Fcss%3Ffamily%3DJetBrains%2BMono;" parent="yZcuGgpaBFYyNksr62-L-340" vertex="1">
          <mxGeometry y="20" width="240" height="50" as="geometry" />
        </mxCell>
        <mxCell id="buXjULTb7Ma8A_ARaXhs-265" value="Length of mod name" style="text;html=1;align=left;verticalAlign=middle;whiteSpace=wrap;rounded=0;spacingLeft=6;fontFamily=JetBrains Mono;fontSource=https%3A%2F%2Ffonts.googleapis.com%2Fcss%3Ffamily%3DJetBrains%2BMono;fontSize=12;" parent="yZcuGgpaBFYyNksr62-L-340" vertex="1">
          <mxGeometry y="140" width="170" height="20" as="geometry" />
        </mxCell>
        <mxCell id="buXjULTb7Ma8A_ARaXhs-266" value="Mod name or &lt;br&gt;folder name if ID 0" style="text;html=1;align=left;verticalAlign=middle;whiteSpace=wrap;rounded=0;spacingLeft=6;fontFamily=JetBrains Mono;fontSource=https%3A%2F%2Ffonts.googleapis.com%2Fcss%3Ffamily%3DJetBrains%2BMono;fontSize=12;" parent="yZcuGgpaBFYyNksr62-L-340" vertex="1">
          <mxGeometry y="160" width="170" height="50" as="geometry" />
        </mxCell>
        <mxCell id="9" value="" style="endArrow=none;html=1;fontFamily=JetBrains Mono;fontSource=https%3A%2F%2Ffonts.googleapis.com%2Fcss%3Ffamily%3DJetBrains%2BMono;fontSize=10;entryX=1;entryY=0;entryDx=0;entryDy=0;exitX=1;exitY=1;exitDx=0;exitDy=0;" parent="yZcuGgpaBFYyNksr62-L-340" source="buXjULTb7Ma8A_ARaXhs-266" target="buXjULTb7Ma8A_ARaXhs-265" edge="1">
          <mxGeometry width="50" height="50" relative="1" as="geometry">
            <mxPoint x="90" y="190" as="sourcePoint" />
            <mxPoint x="140" y="140" as="targetPoint" />
          </mxGeometry>
        </mxCell>
        <mxCell id="yZcuGgpaBFYyNksr62-L-333" style="shape=tableRow;horizontal=0;swimlaneHead=0;swimlaneBody=0;top=0;left=0;strokeColor=inherit;bottom=0;right=0;dropTarget=0;fontStyle=0;fillColor=none;points=[[0,0.5],[1,0.5]];portConstraint=eastwest;startSize=0;collapsible=0;recursiveResize=0;expand=0;fontSize=16;fontFamily=JetBrains Mono;fontSource=https%3A%2F%2Ffonts.googleapis.com%2Fcss%3Ffamily%3DJetBrains%2BMono;" parent="yZcuGgpaBFYyNksr62-L-2" vertex="1">
          <mxGeometry y="530" width="470" height="90" as="geometry" />
        </mxCell>
        <mxCell id="yZcuGgpaBFYyNksr62-L-334" style="swimlane;swimlaneHead=0;swimlaneBody=0;fontStyle=0;connectable=0;strokeColor=inherit;fillColor=none;startSize=0;collapsible=0;recursiveResize=0;expand=0;fontSize=16;fontFamily=JetBrains Mono;fontSource=https%3A%2F%2Ffonts.googleapis.com%2Fcss%3Ffamily%3DJetBrains%2BMono;" parent="yZcuGgpaBFYyNksr62-L-333" vertex="1">
          <mxGeometry width="160" height="90" as="geometry">
            <mxRectangle width="160" height="90" as="alternateBounds" />
          </mxGeometry>
        </mxCell>
        <mxCell id="yZcuGgpaBFYyNksr62-L-335" style="swimlane;swimlaneHead=0;swimlaneBody=0;fontStyle=0;connectable=0;strokeColor=inherit;fillColor=none;startSize=0;collapsible=0;recursiveResize=0;expand=0;fontSize=16;fontFamily=JetBrains Mono;fontSource=https%3A%2F%2Ffonts.googleapis.com%2Fcss%3Ffamily%3DJetBrains%2BMono;" parent="yZcuGgpaBFYyNksr62-L-333" vertex="1">
          <mxGeometry x="160" width="70" height="90" as="geometry">
            <mxRectangle width="70" height="90" as="alternateBounds" />
          </mxGeometry>
        </mxCell>
        <mxCell id="buXjULTb7Ma8A_ARaXhs-333" value="string&lt;div&gt;(1-256)&lt;/div&gt;" style="text;html=1;align=center;verticalAlign=middle;whiteSpace=wrap;rounded=0;fontFamily=JetBrains Mono;fontSource=https%3A%2F%2Ffonts.googleapis.com%2Fcss%3Ffamily%3DJetBrains%2BMono;" parent="yZcuGgpaBFYyNksr62-L-335" vertex="1">
          <mxGeometry y="40" width="70" height="50" as="geometry" />
        </mxCell>
        <mxCell id="yZcuGgpaBFYyNksr62-L-336" style="swimlane;swimlaneHead=0;swimlaneBody=0;fontStyle=0;connectable=0;strokeColor=inherit;fillColor=none;startSize=0;collapsible=0;recursiveResize=0;expand=0;fontSize=16;fontFamily=JetBrains Mono;fontSource=https%3A%2F%2Ffonts.googleapis.com%2Fcss%3Ffamily%3DJetBrains%2BMono;" parent="yZcuGgpaBFYyNksr62-L-333" vertex="1">
          <mxGeometry x="230" width="240" height="90" as="geometry">
            <mxRectangle width="240" height="90" as="alternateBounds" />
          </mxGeometry>
        </mxCell>
        <mxCell id="buXjULTb7Ma8A_ARaXhs-307" value="Sihnature count" style="text;html=1;align=center;verticalAlign=middle;whiteSpace=wrap;rounded=0;fontFamily=JetBrains Mono;fontSource=https%3A%2F%2Ffonts.googleapis.com%2Fcss%3Ffamily%3DJetBrains%2BMono;" parent="yZcuGgpaBFYyNksr62-L-336" vertex="1">
          <mxGeometry x="-230" width="160" height="20" as="geometry" />
        </mxCell>
        <mxCell id="buXjULTb7Ma8A_ARaXhs-315" value="Bikey &lt;b&gt;i&lt;/b&gt; length" style="text;html=1;align=center;verticalAlign=middle;whiteSpace=wrap;rounded=0;fontFamily=JetBrains Mono;fontSource=https%3A%2F%2Ffonts.googleapis.com%2Fcss%3Ffamily%3DJetBrains%2BMono;" parent="yZcuGgpaBFYyNksr62-L-336" vertex="1">
          <mxGeometry x="-230" y="20" width="160" height="20" as="geometry" />
        </mxCell>
        <mxCell id="buXjULTb7Ma8A_ARaXhs-316" value="byte" style="text;html=1;align=center;verticalAlign=middle;whiteSpace=wrap;rounded=0;fontFamily=JetBrains Mono;fontSource=https%3A%2F%2Ffonts.googleapis.com%2Fcss%3Ffamily%3DJetBrains%2BMono;" parent="yZcuGgpaBFYyNksr62-L-336" vertex="1">
          <mxGeometry x="-70" width="70" height="20" as="geometry" />
        </mxCell>
        <mxCell id="buXjULTb7Ma8A_ARaXhs-319" value="byte" style="text;html=1;align=center;verticalAlign=middle;whiteSpace=wrap;rounded=0;fontFamily=JetBrains Mono;fontSource=https%3A%2F%2Ffonts.googleapis.com%2Fcss%3Ffamily%3DJetBrains%2BMono;" parent="yZcuGgpaBFYyNksr62-L-336" vertex="1">
          <mxGeometry x="-70" y="20" width="70" height="20" as="geometry" />
        </mxCell>
        <mxCell id="buXjULTb7Ma8A_ARaXhs-323" value="" style="endArrow=none;html=1;rounded=0;entryX=1;entryY=1;entryDx=0;entryDy=0;" parent="yZcuGgpaBFYyNksr62-L-336" edge="1">
          <mxGeometry width="50" height="50" relative="1" as="geometry">
            <mxPoint x="-230" y="20" as="sourcePoint" />
            <mxPoint x="240" y="20" as="targetPoint" />
          </mxGeometry>
        </mxCell>
        <mxCell id="buXjULTb7Ma8A_ARaXhs-324" value="" style="endArrow=none;html=1;rounded=0;" parent="yZcuGgpaBFYyNksr62-L-336" edge="1">
          <mxGeometry width="50" height="50" relative="1" as="geometry">
            <mxPoint x="-230" y="40" as="sourcePoint" />
            <mxPoint x="240" y="40" as="targetPoint" />
          </mxGeometry>
        </mxCell>
        <mxCell id="buXjULTb7Ma8A_ARaXhs-325" value="Number of keys in the section" style="text;html=1;align=left;verticalAlign=middle;whiteSpace=wrap;rounded=0;spacingLeft=6;fontFamily=JetBrains Mono;fontSource=https%3A%2F%2Ffonts.googleapis.com%2Fcss%3Ffamily%3DJetBrains%2BMono;" parent="yZcuGgpaBFYyNksr62-L-336" vertex="1">
          <mxGeometry width="240" height="20" as="geometry" />
        </mxCell>
        <mxCell id="buXjULTb7Ma8A_ARaXhs-329" value="Length of key name" style="text;html=1;align=left;verticalAlign=middle;whiteSpace=wrap;rounded=0;spacingLeft=6;fontFamily=JetBrains Mono;fontSource=https%3A%2F%2Ffonts.googleapis.com%2Fcss%3Ffamily%3DJetBrains%2BMono;fontSize=12;" parent="yZcuGgpaBFYyNksr62-L-336" vertex="1">
          <mxGeometry y="20" width="240" height="20" as="geometry" />
        </mxCell>
        <mxCell id="buXjULTb7Ma8A_ARaXhs-330" value="" style="endArrow=none;html=1;rounded=0;strokeWidth=2;" parent="yZcuGgpaBFYyNksr62-L-336" edge="1">
          <mxGeometry width="50" height="50" relative="1" as="geometry">
            <mxPoint x="-230" y="20" as="sourcePoint" />
            <mxPoint x="240" y="20" as="targetPoint" />
          </mxGeometry>
        </mxCell>
        <mxCell id="buXjULTb7Ma8A_ARaXhs-309" value="Bikey &lt;b&gt;i&lt;/b&gt; name" style="text;html=1;align=center;verticalAlign=middle;whiteSpace=wrap;rounded=0;fontFamily=JetBrains Mono;fontSource=https%3A%2F%2Ffonts.googleapis.com%2Fcss%3Ffamily%3DJetBrains%2BMono;" parent="yZcuGgpaBFYyNksr62-L-336" vertex="1">
          <mxGeometry x="-230" y="40" width="160" height="50" as="geometry" />
        </mxCell>
        <mxCell id="buXjULTb7Ma8A_ARaXhs-327" value="Signature key name&amp;nbsp;" style="text;html=1;align=left;verticalAlign=middle;whiteSpace=wrap;rounded=0;spacingLeft=6;fontFamily=JetBrains Mono;fontSource=https%3A%2F%2Ffonts.googleapis.com%2Fcss%3Ffamily%3DJetBrains%2BMono;fontSize=12;" parent="yZcuGgpaBFYyNksr62-L-336" vertex="1">
          <mxGeometry y="40" width="240" height="50" as="geometry" />
        </mxCell>
        <mxCell id="yZcuGgpaBFYyNksr62-L-142" value="0" style="text;html=1;align=center;verticalAlign=middle;whiteSpace=wrap;rounded=0;fontFamily=JetBrains Mono;fontSource=https%3A%2F%2Ffonts.googleapis.com%2Fcss%3Ffamily%3DJetBrains%2BMono;fontSize=10;" parent="1" vertex="1">
          <mxGeometry x="260" y="190" width="20" height="20" as="geometry" />
        </mxCell>
        <mxCell id="yZcuGgpaBFYyNksr62-L-143" value="7" style="text;html=1;align=center;verticalAlign=middle;whiteSpace=wrap;rounded=0;fontFamily=JetBrains Mono;fontSource=https%3A%2F%2Ffonts.googleapis.com%2Fcss%3Ffamily%3DJetBrains%2BMono;fontSize=10;" parent="1" vertex="1">
          <mxGeometry x="120" y="190" width="20" height="20" as="geometry" />
        </mxCell>
        <mxCell id="yZcuGgpaBFYyNksr62-L-155" value="" style="endArrow=none;html=1;rounded=0;entryX=1;entryY=1;entryDx=0;entryDy=0;exitX=1;exitY=0;exitDx=0;exitDy=0;fontFamily=JetBrains Mono;fontSource=https%3A%2F%2Ffonts.googleapis.com%2Fcss%3Ffamily%3DJetBrains%2BMono;fontSize=10;" parent="1" source="yZcuGgpaBFYyNksr62-L-142" target="yZcuGgpaBFYyNksr62-L-142" edge="1">
          <mxGeometry width="50" height="50" relative="1" as="geometry">
            <mxPoint x="300" y="370" as="sourcePoint" />
            <mxPoint x="350" y="320" as="targetPoint" />
          </mxGeometry>
        </mxCell>
        <mxCell id="yZcuGgpaBFYyNksr62-L-156" value="" style="endArrow=none;html=1;rounded=0;entryX=1;entryY=1;entryDx=0;entryDy=0;exitX=1;exitY=0;exitDx=0;exitDy=0;fontFamily=JetBrains Mono;fontSource=https%3A%2F%2Ffonts.googleapis.com%2Fcss%3Ffamily%3DJetBrains%2BMono;fontSize=10;" parent="1" edge="1">
          <mxGeometry width="50" height="50" relative="1" as="geometry">
            <mxPoint x="260" y="190" as="sourcePoint" />
            <mxPoint x="260" y="210" as="targetPoint" />
          </mxGeometry>
        </mxCell>
        <mxCell id="yZcuGgpaBFYyNksr62-L-157" value="" style="endArrow=none;html=1;rounded=0;entryX=1;entryY=1;entryDx=0;entryDy=0;exitX=1;exitY=0;exitDx=0;exitDy=0;fontFamily=JetBrains Mono;fontSource=https%3A%2F%2Ffonts.googleapis.com%2Fcss%3Ffamily%3DJetBrains%2BMono;fontSize=10;" parent="1" edge="1">
          <mxGeometry width="50" height="50" relative="1" as="geometry">
            <mxPoint x="140" y="190" as="sourcePoint" />
            <mxPoint x="140" y="210" as="targetPoint" />
          </mxGeometry>
        </mxCell>
        <mxCell id="yZcuGgpaBFYyNksr62-L-159" value="" style="endArrow=none;html=1;rounded=0;entryX=1;entryY=1;entryDx=0;entryDy=0;exitX=1;exitY=0;exitDx=0;exitDy=0;fontFamily=JetBrains Mono;fontSource=https%3A%2F%2Ffonts.googleapis.com%2Fcss%3Ffamily%3DJetBrains%2BMono;fontSize=10;" parent="1" edge="1">
          <mxGeometry width="50" height="50" relative="1" as="geometry">
            <mxPoint x="160" y="190" as="sourcePoint" />
            <mxPoint x="160" y="210" as="targetPoint" />
          </mxGeometry>
        </mxCell>
        <mxCell id="yZcuGgpaBFYyNksr62-L-160" value="" style="endArrow=none;html=1;rounded=0;entryX=1;entryY=1;entryDx=0;entryDy=0;exitX=1;exitY=0;exitDx=0;exitDy=0;fontFamily=JetBrains Mono;fontSource=https%3A%2F%2Ffonts.googleapis.com%2Fcss%3Ffamily%3DJetBrains%2BMono;fontSize=10;" parent="1" edge="1">
          <mxGeometry width="50" height="50" relative="1" as="geometry">
            <mxPoint x="180" y="190" as="sourcePoint" />
            <mxPoint x="180" y="210" as="targetPoint" />
          </mxGeometry>
        </mxCell>
        <mxCell id="yZcuGgpaBFYyNksr62-L-161" value="" style="endArrow=none;html=1;rounded=0;entryX=1;entryY=1;entryDx=0;entryDy=0;exitX=1;exitY=0;exitDx=0;exitDy=0;fontFamily=JetBrains Mono;fontSource=https%3A%2F%2Ffonts.googleapis.com%2Fcss%3Ffamily%3DJetBrains%2BMono;fontSize=10;" parent="1" edge="1">
          <mxGeometry width="50" height="50" relative="1" as="geometry">
            <mxPoint x="199.9" y="190" as="sourcePoint" />
            <mxPoint x="199.9" y="210" as="targetPoint" />
          </mxGeometry>
        </mxCell>
        <mxCell id="yZcuGgpaBFYyNksr62-L-162" value="" style="endArrow=none;html=1;rounded=0;entryX=1;entryY=1;entryDx=0;entryDy=0;exitX=1;exitY=0;exitDx=0;exitDy=0;fontFamily=JetBrains Mono;fontSource=https%3A%2F%2Ffonts.googleapis.com%2Fcss%3Ffamily%3DJetBrains%2BMono;fontSize=10;" parent="1" edge="1">
          <mxGeometry width="50" height="50" relative="1" as="geometry">
            <mxPoint x="219.89999999999998" y="190" as="sourcePoint" />
            <mxPoint x="219.89999999999998" y="210" as="targetPoint" />
          </mxGeometry>
        </mxCell>
        <mxCell id="yZcuGgpaBFYyNksr62-L-163" value="" style="endArrow=none;html=1;rounded=0;entryX=1;entryY=1;entryDx=0;entryDy=0;exitX=1;exitY=0;exitDx=0;exitDy=0;fontFamily=JetBrains Mono;fontSource=https%3A%2F%2Ffonts.googleapis.com%2Fcss%3Ffamily%3DJetBrains%2BMono;fontSize=10;" parent="1" edge="1">
          <mxGeometry width="50" height="50" relative="1" as="geometry">
            <mxPoint x="239.81" y="190" as="sourcePoint" />
            <mxPoint x="239.81" y="210" as="targetPoint" />
          </mxGeometry>
        </mxCell>
        <mxCell id="buXjULTb7Ma8A_ARaXhs-9" value="" style="endArrow=none;html=1;rounded=0;strokeWidth=2;" parent="1" edge="1">
          <mxGeometry width="50" height="50" relative="1" as="geometry">
            <mxPoint x="120" y="500" as="sourcePoint" />
            <mxPoint x="590" y="500" as="targetPoint" />
          </mxGeometry>
        </mxCell>
        <mxCell id="buXjULTb7Ma8A_ARaXhs-267" value="1" style="text;html=1;align=center;verticalAlign=middle;whiteSpace=wrap;rounded=0;fontFamily=JetBrains Mono;fontSource=https%3A%2F%2Ffonts.googleapis.com%2Fcss%3Ffamily%3DJetBrains%2BMono;fontSize=10;" parent="1" vertex="1">
          <mxGeometry x="240" y="190" width="20" height="20" as="geometry" />
        </mxCell>
        <mxCell id="buXjULTb7Ma8A_ARaXhs-268" value="2" style="text;html=1;align=center;verticalAlign=middle;whiteSpace=wrap;rounded=0;fontFamily=JetBrains Mono;fontSource=https%3A%2F%2Ffonts.googleapis.com%2Fcss%3Ffamily%3DJetBrains%2BMono;fontSize=10;" parent="1" vertex="1">
          <mxGeometry x="220" y="190" width="20" height="20" as="geometry" />
        </mxCell>
        <mxCell id="buXjULTb7Ma8A_ARaXhs-269" value="3" style="text;html=1;align=center;verticalAlign=middle;whiteSpace=wrap;rounded=0;fontFamily=JetBrains Mono;fontSource=https%3A%2F%2Ffonts.googleapis.com%2Fcss%3Ffamily%3DJetBrains%2BMono;fontSize=10;" parent="1" vertex="1">
          <mxGeometry x="200" y="190" width="20" height="20" as="geometry" />
        </mxCell>
        <mxCell id="buXjULTb7Ma8A_ARaXhs-270" value="4" style="text;html=1;align=center;verticalAlign=middle;whiteSpace=wrap;rounded=0;fontFamily=JetBrains Mono;fontSource=https%3A%2F%2Ffonts.googleapis.com%2Fcss%3Ffamily%3DJetBrains%2BMono;fontSize=10;" parent="1" vertex="1">
          <mxGeometry x="180" y="190" width="20" height="20" as="geometry" />
        </mxCell>
        <mxCell id="buXjULTb7Ma8A_ARaXhs-271" value="5" style="text;html=1;align=center;verticalAlign=middle;whiteSpace=wrap;rounded=0;fontFamily=JetBrains Mono;fontSource=https%3A%2F%2Ffonts.googleapis.com%2Fcss%3Ffamily%3DJetBrains%2BMono;fontSize=10;" parent="1" vertex="1">
          <mxGeometry x="160" y="190" width="20" height="20" as="geometry" />
        </mxCell>
        <mxCell id="buXjULTb7Ma8A_ARaXhs-272" value="6" style="text;html=1;align=center;verticalAlign=middle;whiteSpace=wrap;rounded=0;fontFamily=JetBrains Mono;fontSource=https%3A%2F%2Ffonts.googleapis.com%2Fcss%3Ffamily%3DJetBrains%2BMono;fontSize=10;" parent="1" vertex="1">
          <mxGeometry x="140" y="190" width="20" height="20" as="geometry" />
        </mxCell>
        <mxCell id="buXjULTb7Ma8A_ARaXhs-336" value="A2S_RULES chunks" style="shape=table;childLayout=tableLayout;startSize=50;collapsible=0;recursiveResize=0;expand=0;fontSize=16;movable=1;resizable=1;rotatable=1;deletable=1;editable=1;locked=0;connectable=1;verticalAlign=top;strokeWidth=2;fontFamily=JetBrains Mono;fontSource=https%3A%2F%2Ffonts.googleapis.com%2Fcss%3Ffamily%3DJetBrains%2BMono;fillColor=none;rounded=1;arcSize=3;" parent="1" vertex="1">
          <mxGeometry x="120" y="-20" width="470" height="150" as="geometry" />
        </mxCell>
        <mxCell id="buXjULTb7Ma8A_ARaXhs-337" style="shape=tableRow;horizontal=0;swimlaneHead=0;swimlaneBody=0;top=0;left=0;strokeColor=inherit;bottom=0;right=0;dropTarget=0;fontStyle=0;fillColor=none;points=[[0,0.5],[1,0.5]];portConstraint=eastwest;startSize=0;collapsible=0;recursiveResize=0;expand=0;fontSize=16;fontFamily=JetBrains Mono;fontSource=https%3A%2F%2Ffonts.googleapis.com%2Fcss%3Ffamily%3DJetBrains%2BMono;" parent="buXjULTb7Ma8A_ARaXhs-336" vertex="1">
          <mxGeometry y="50" width="470" height="40" as="geometry" />
        </mxCell>
        <mxCell id="buXjULTb7Ma8A_ARaXhs-338" value="" style="swimlane;swimlaneHead=0;swimlaneBody=0;fontStyle=0;connectable=0;strokeColor=inherit;fillColor=none;startSize=0;collapsible=0;recursiveResize=0;expand=0;fontSize=16;fontFamily=JetBrains Mono;fontSource=https%3A%2F%2Ffonts.googleapis.com%2Fcss%3Ffamily%3DJetBrains%2BMono;" parent="buXjULTb7Ma8A_ARaXhs-337" vertex="1">
          <mxGeometry width="160" height="40" as="geometry">
            <mxRectangle width="160" height="40" as="alternateBounds" />
          </mxGeometry>
        </mxCell>
        <mxCell id="buXjULTb7Ma8A_ARaXhs-469" value="Chunk index" style="text;html=1;align=center;verticalAlign=middle;whiteSpace=wrap;rounded=0;spacingLeft=0;fontFamily=JetBrains Mono;fontSource=https%3A%2F%2Ffonts.googleapis.com%2Fcss%3Ffamily%3DJetBrains%2BMono;" parent="buXjULTb7Ma8A_ARaXhs-338" vertex="1">
          <mxGeometry width="160" height="20" as="geometry" />
        </mxCell>
        <mxCell id="buXjULTb7Ma8A_ARaXhs-470" value="Chunks total" style="text;html=1;align=center;verticalAlign=middle;whiteSpace=wrap;rounded=0;spacingLeft=0;fontFamily=JetBrains Mono;fontSource=https%3A%2F%2Ffonts.googleapis.com%2Fcss%3Ffamily%3DJetBrains%2BMono;" parent="buXjULTb7Ma8A_ARaXhs-338" vertex="1">
          <mxGeometry y="20" width="160" height="20" as="geometry" />
        </mxCell>
        <mxCell id="buXjULTb7Ma8A_ARaXhs-339" style="swimlane;swimlaneHead=0;swimlaneBody=0;fontStyle=0;connectable=0;strokeColor=inherit;fillColor=none;startSize=0;collapsible=0;recursiveResize=0;expand=0;fontSize=16;fontFamily=JetBrains Mono;fontSource=https%3A%2F%2Ffonts.googleapis.com%2Fcss%3Ffamily%3DJetBrains%2BMono;" parent="buXjULTb7Ma8A_ARaXhs-337" vertex="1">
          <mxGeometry x="160" width="70" height="40" as="geometry">
            <mxRectangle width="70" height="40" as="alternateBounds" />
          </mxGeometry>
        </mxCell>
        <mxCell id="buXjULTb7Ma8A_ARaXhs-340" value="byte" style="text;html=1;align=center;verticalAlign=middle;whiteSpace=wrap;rounded=0;fontFamily=JetBrains Mono;fontSource=https%3A%2F%2Ffonts.googleapis.com%2Fcss%3Ffamily%3DJetBrains%2BMono;" parent="buXjULTb7Ma8A_ARaXhs-339" vertex="1">
          <mxGeometry width="70" height="20" as="geometry" />
        </mxCell>
        <mxCell id="buXjULTb7Ma8A_ARaXhs-466" value="byte" style="text;html=1;align=center;verticalAlign=middle;whiteSpace=wrap;rounded=0;fontFamily=JetBrains Mono;fontSource=https%3A%2F%2Ffonts.googleapis.com%2Fcss%3Ffamily%3DJetBrains%2BMono;" parent="buXjULTb7Ma8A_ARaXhs-339" vertex="1">
          <mxGeometry y="20" width="70" height="20" as="geometry" />
        </mxCell>
        <mxCell id="buXjULTb7Ma8A_ARaXhs-341" style="swimlane;swimlaneHead=0;swimlaneBody=0;fontStyle=0;connectable=0;strokeColor=inherit;fillColor=none;startSize=0;collapsible=0;recursiveResize=0;expand=0;fontSize=16;fontFamily=JetBrains Mono;fontSource=https%3A%2F%2Ffonts.googleapis.com%2Fcss%3Ffamily%3DJetBrains%2BMono;" parent="buXjULTb7Ma8A_ARaXhs-337" vertex="1">
          <mxGeometry x="230" width="240" height="40" as="geometry">
            <mxRectangle width="240" height="40" as="alternateBounds" />
          </mxGeometry>
        </mxCell>
        <mxCell id="buXjULTb7Ma8A_ARaXhs-342" value="A2S_RULES Key" style="text;html=1;align=left;verticalAlign=middle;whiteSpace=wrap;rounded=0;spacingLeft=6;fontFamily=JetBrains Mono;fontSource=https%3A%2F%2Ffonts.googleapis.com%2Fcss%3Ffamily%3DJetBrains%2BMono;" parent="buXjULTb7Ma8A_ARaXhs-341" vertex="1">
          <mxGeometry width="240" height="40" as="geometry" />
        </mxCell>
        <mxCell id="buXjULTb7Ma8A_ARaXhs-354" value="" style="shape=tableRow;horizontal=0;swimlaneHead=0;swimlaneBody=0;top=0;left=0;strokeColor=inherit;bottom=0;right=0;dropTarget=0;fontStyle=0;fillColor=none;points=[[0,0.5],[1,0.5]];portConstraint=eastwest;startSize=0;collapsible=0;recursiveResize=0;expand=0;fontSize=16;fontFamily=JetBrains Mono;fontSource=https%3A%2F%2Ffonts.googleapis.com%2Fcss%3Ffamily%3DJetBrains%2BMono;" parent="buXjULTb7Ma8A_ARaXhs-336" vertex="1">
          <mxGeometry y="90" width="470" height="60" as="geometry" />
        </mxCell>
        <mxCell id="buXjULTb7Ma8A_ARaXhs-355" value="" style="swimlane;swimlaneHead=0;swimlaneBody=0;fontStyle=0;connectable=0;strokeColor=inherit;fillColor=none;startSize=0;collapsible=0;recursiveResize=0;expand=0;fontSize=12;fontFamily=JetBrains Mono;fontSource=https%3A%2F%2Ffonts.googleapis.com%2Fcss%3Ffamily%3DJetBrains%2BMono;" parent="buXjULTb7Ma8A_ARaXhs-354" vertex="1">
          <mxGeometry width="160" height="60" as="geometry">
            <mxRectangle width="160" height="60" as="alternateBounds" />
          </mxGeometry>
        </mxCell>
        <mxCell id="buXjULTb7Ma8A_ARaXhs-471" value="Payload&lt;div&gt;&lt;font style=&quot;font-size: 8px;&quot;&gt;(parts of Arma3 Server Message)&lt;/font&gt;&lt;/div&gt;" style="text;html=1;align=center;verticalAlign=middle;whiteSpace=wrap;rounded=0;spacingLeft=0;fontFamily=JetBrains Mono;fontSource=https%3A%2F%2Ffonts.googleapis.com%2Fcss%3Ffamily%3DJetBrains%2BMono;" parent="buXjULTb7Ma8A_ARaXhs-355" vertex="1">
          <mxGeometry width="160" height="60" as="geometry" />
        </mxCell>
        <mxCell id="buXjULTb7Ma8A_ARaXhs-376" value="" style="swimlane;swimlaneHead=0;swimlaneBody=0;fontStyle=0;connectable=0;strokeColor=inherit;fillColor=none;startSize=0;collapsible=0;recursiveResize=0;expand=0;fontSize=16;fontFamily=JetBrains Mono;fontSource=https%3A%2F%2Ffonts.googleapis.com%2Fcss%3Ffamily%3DJetBrains%2BMono;" parent="buXjULTb7Ma8A_ARaXhs-354" vertex="1">
          <mxGeometry x="160" width="70" height="60" as="geometry">
            <mxRectangle width="70" height="60" as="alternateBounds" />
          </mxGeometry>
        </mxCell>
        <mxCell id="buXjULTb7Ma8A_ARaXhs-377" value="&amp;lt;125" style="text;html=1;align=center;verticalAlign=middle;whiteSpace=wrap;rounded=0;fontFamily=JetBrains Mono;fontSource=https%3A%2F%2Ffonts.googleapis.com%2Fcss%3Ffamily%3DJetBrains%2BMono;" parent="buXjULTb7Ma8A_ARaXhs-376" vertex="1">
          <mxGeometry width="70" height="60" as="geometry" />
        </mxCell>
        <mxCell id="buXjULTb7Ma8A_ARaXhs-378" value="" style="swimlane;swimlaneHead=0;swimlaneBody=0;fontStyle=0;connectable=0;strokeColor=inherit;fillColor=none;startSize=0;collapsible=0;recursiveResize=0;expand=0;fontSize=16;fontFamily=JetBrains Mono;fontSource=https%3A%2F%2Ffonts.googleapis.com%2Fcss%3Ffamily%3DJetBrains%2BMono;" parent="buXjULTb7Ma8A_ARaXhs-354" vertex="1">
          <mxGeometry x="230" width="240" height="60" as="geometry">
            <mxRectangle width="240" height="60" as="alternateBounds" />
          </mxGeometry>
        </mxCell>
        <mxCell id="buXjULTb7Ma8A_ARaXhs-379" value="A2S_RULES&amp;nbsp;Value" style="text;html=1;align=left;verticalAlign=middle;whiteSpace=wrap;rounded=0;spacingLeft=6;fontFamily=JetBrains Mono;fontSource=https%3A%2F%2Ffonts.googleapis.com%2Fcss%3Ffamily%3DJetBrains%2BMono;" parent="buXjULTb7Ma8A_ARaXhs-378" vertex="1">
          <mxGeometry width="130" height="60" as="geometry" />
        </mxCell>
        <mxCell id="buXjULTb7Ma8A_ARaXhs-472" value="&lt;div&gt;0x01 0x01&lt;/div&gt;&lt;div&gt;0x01&lt;span style=&quot;background-color: initial;&quot;&gt;&amp;nbsp;&lt;/span&gt;&lt;span style=&quot;background-color: initial;&quot;&gt;0x02&lt;/span&gt;&lt;/div&gt;&lt;div&gt;0x01&lt;span style=&quot;background-color: initial;&quot;&gt;&amp;nbsp;&lt;/span&gt;&lt;span style=&quot;background-color: initial;&quot;&gt;0x03&lt;/span&gt;&lt;/div&gt;" style="text;html=1;align=right;verticalAlign=middle;whiteSpace=wrap;rounded=0;spacingLeft=0;fontSize=9;fontFamily=JetBrains Mono;fontStyle=1;fontSource=https%3A%2F%2Ffonts.googleapis.com%2Fcss%3Ffamily%3DJetBrains%2BMono;spacingRight=2;" parent="buXjULTb7Ma8A_ARaXhs-378" vertex="1">
          <mxGeometry x="130" y="20" width="70" height="40" as="geometry" />
        </mxCell>
        <mxCell id="buXjULTb7Ma8A_ARaXhs-473" value="&lt;div&gt;0x01&lt;/div&gt;&lt;div&gt;0x00&lt;/div&gt;&lt;div&gt;&lt;span style=&quot;background-color: initial;&quot;&gt;0xFF&lt;/span&gt;&lt;/div&gt;" style="text;html=1;align=left;verticalAlign=middle;whiteSpace=wrap;rounded=0;spacingLeft=2;fontSize=9;fontFamily=JetBrains Mono;fontStyle=1;fontSource=https%3A%2F%2Ffonts.googleapis.com%2Fcss%3Ffamily%3DJetBrains%2BMono;" parent="buXjULTb7Ma8A_ARaXhs-378" vertex="1">
          <mxGeometry x="200" y="20" width="40" height="40" as="geometry" />
        </mxCell>
        <mxCell id="buXjULTb7Ma8A_ARaXhs-474" value="" style="endArrow=none;html=1;rounded=0;entryX=0;entryY=0;entryDx=0;entryDy=0;exitX=0;exitY=1;exitDx=0;exitDy=0;" parent="buXjULTb7Ma8A_ARaXhs-378" source="buXjULTb7Ma8A_ARaXhs-472" target="buXjULTb7Ma8A_ARaXhs-497" edge="1">
          <mxGeometry width="50" height="50" relative="1" as="geometry">
            <mxPoint x="280" y="40" as="sourcePoint" />
            <mxPoint x="330" y="-10" as="targetPoint" />
          </mxGeometry>
        </mxCell>
        <mxCell id="buXjULTb7Ma8A_ARaXhs-475" value="" style="endArrow=none;html=1;rounded=0;entryX=0;entryY=0;entryDx=0;entryDy=0;exitX=0;exitY=1;exitDx=0;exitDy=0;" parent="buXjULTb7Ma8A_ARaXhs-378" source="buXjULTb7Ma8A_ARaXhs-473" target="buXjULTb7Ma8A_ARaXhs-498" edge="1">
          <mxGeometry width="50" height="50" relative="1" as="geometry">
            <mxPoint x="200" y="40" as="sourcePoint" />
            <mxPoint x="200" as="targetPoint" />
          </mxGeometry>
        </mxCell>
        <mxCell id="buXjULTb7Ma8A_ARaXhs-497" value="Escape seq" style="text;html=1;align=right;verticalAlign=middle;whiteSpace=wrap;rounded=0;spacingLeft=6;fontFamily=JetBrains Mono;fontSource=https%3A%2F%2Ffonts.googleapis.com%2Fcss%3Ffamily%3DJetBrains%2BMono;fontSize=10;spacingRight=2;" parent="buXjULTb7Ma8A_ARaXhs-378" vertex="1">
          <mxGeometry x="130" width="70" height="20" as="geometry" />
        </mxCell>
        <mxCell id="buXjULTb7Ma8A_ARaXhs-498" value="value" style="text;html=1;align=left;verticalAlign=middle;whiteSpace=wrap;rounded=0;spacingLeft=2;fontFamily=JetBrains Mono;fontSource=https%3A%2F%2Ffonts.googleapis.com%2Fcss%3Ffamily%3DJetBrains%2BMono;fontSize=10;" parent="buXjULTb7Ma8A_ARaXhs-378" vertex="1">
          <mxGeometry x="200" width="40" height="20" as="geometry" />
        </mxCell>
        <mxCell id="buXjULTb7Ma8A_ARaXhs-499" value="" style="endArrow=none;html=1;rounded=0;entryX=1;entryY=1;entryDx=0;entryDy=0;exitX=0;exitY=1;exitDx=0;exitDy=0;" parent="buXjULTb7Ma8A_ARaXhs-378" source="buXjULTb7Ma8A_ARaXhs-497" target="buXjULTb7Ma8A_ARaXhs-498" edge="1">
          <mxGeometry width="50" height="50" relative="1" as="geometry">
            <mxPoint x="40" y="90" as="sourcePoint" />
            <mxPoint x="90" y="40" as="targetPoint" />
          </mxGeometry>
        </mxCell>
        <mxCell id="buXjULTb7Ma8A_ARaXhs-467" value="" style="endArrow=none;html=1;rounded=0;entryX=1;entryY=0;entryDx=0;entryDy=0;" parent="1" target="buXjULTb7Ma8A_ARaXhs-466" edge="1">
          <mxGeometry width="50" height="50" relative="1" as="geometry">
            <mxPoint x="120" y="50" as="sourcePoint" />
            <mxPoint x="260" y="130" as="targetPoint" />
          </mxGeometry>
        </mxCell>
        <mxCell id="yZcuGgpaBFYyNksr62-L-252" value="DLC Flags" style="text;html=1;align=left;verticalAlign=middle;whiteSpace=wrap;rounded=0;spacingLeft=6;fontFamily=JetBrains Mono;fontSource=https%3A%2F%2Ffonts.googleapis.com%2Fcss%3Ffamily%3DJetBrains%2BMono;" parent="1" vertex="1">
          <mxGeometry x="350" y="250" width="240" height="40" as="geometry" />
        </mxCell>
        <mxCell id="6" value="&lt;span lang=&quot;en&quot; class=&quot;HwtZe&quot; style=&quot;font-size: 12px;&quot;&gt;Doesn&#39;t exist if it&#39;s DLC&lt;/span&gt;" style="rounded=0;whiteSpace=wrap;html=1;horizontal=1;fontFamily=JetBrains Mono;fontSource=https%3A%2F%2Ffonts.googleapis.com%2Fcss%3Ffamily%3DJetBrains%2BMono;fontSize=12;fillColor=#F82525;strokeColor=none;opacity=10;" parent="1" vertex="1">
          <mxGeometry x="520" y="620" width="70" height="70" as="geometry" />
        </mxCell>
      </root>
    </mxGraphModel>
  </diagram>
</mxfile>
